<?xml version="1.0" encoding="utf-8"?>
<svg xmlns="http://www.w3.org/2000/svg" version="1.1" viewBox="329.728 266.24 366.592 362.496" style="max-height: 500px;" width="366.592" height="362.496">
  <path d="M 445.11 344 C 453.733 343.902 453.733 343.902 456.263 344 C 459.991 348.014 457.192 355.324 457.192 361 C 469.458 361 481.723 361 494.36 361 C 494.36 355.72 494.36 350.44 494.36 345 C 496.685 343.749 498.333 343.867 500.924 343.875 C 502.175 343.871 502.175 343.871 503.454 343.867 C 505.511 344 505.511 344 506.441 345 C 506.441 350.28 506.441 355.56 506.441 361 C 518.706 360.67 530.973 360.34 543.61 360 C 543.916 355.05 544.224 350.1 544.539 345 C 545.468 344 545.468 344 547.763 343.867 C 549.156 343.871 549.156 343.871 550.58 343.875 C 551.509 343.872 552.438 343.87 553.396 343.867 C 555.689 344 555.689 344 556.62 345 C 556.688 347.697 556.705 350.367 556.677 353.063 C 556.673 353.821 556.67 354.58 556.666 355.361 C 556.654 357.241 556.637 359.12 556.62 361 C 557.182 360.942 557.745 360.884 558.325 360.824 C 564.931 360.441 569.8 361.816 575.204 366 C 579.672 371.013 581.812 375.314 581.858 382.311 C 581.871 383.964 581.871 383.964 581.885 385.65 C 581.891 386.86 581.897 388.069 581.902 389.315 C 581.911 390.588 581.92 391.862 581.93 393.174 C 581.959 397.4 581.979 401.626 581.995 405.852 C 581.999 406.571 582.002 407.291 582.005 408.033 C 582.032 414.826 582.058 421.619 582.074 428.412 C 582.095 437.089 582.133 445.765 582.197 454.441 C 582.241 460.549 582.264 466.656 582.272 472.763 C 582.277 476.407 582.29 480.05 582.326 483.694 C 582.367 487.766 582.364 491.837 582.357 495.909 C 582.375 497.106 582.394 498.303 582.412 499.537 C 582.35 507.299 580.933 512.136 576.133 518 C 571.625 522.615 567.506 524.246 561.324 524.267 C 560.216 524.276 559.111 524.284 557.971 524.293 C 556.766 524.292 555.56 524.291 554.319 524.291 C 553.03 524.297 551.742 524.303 550.452 524.311 C 546.957 524.329 543.463 524.333 539.969 524.335 C 537.784 524.336 535.598 524.34 533.413 524.346 C 525.784 524.364 518.152 524.372 510.523 524.371 C 503.421 524.369 496.319 524.39 489.217 524.422 C 483.112 524.448 477.005 524.459 470.9 524.458 C 467.256 524.457 463.614 524.463 459.97 524.484 C 456.543 524.503 453.115 524.504 449.686 524.489 C 447.837 524.486 445.986 524.503 444.138 524.52 C 436.468 524.462 431.409 523.528 425.372 518.141 C 424.622 517.205 424.622 517.205 423.855 516.25 C 423.083 515.33 423.083 515.33 422.295 514.391 C 418.421 507.495 418.823 499.532 418.838 491.744 C 418.833 490.537 418.828 489.329 418.825 488.085 C 418.813 484.794 418.811 481.503 418.813 478.211 C 418.814 475.455 418.809 472.699 418.805 469.944 C 418.794 463.439 418.794 456.935 418.8 450.43 C 418.805 443.736 418.794 437.043 418.774 430.349 C 418.758 424.585 418.753 418.821 418.756 413.056 C 418.757 409.621 418.755 406.186 418.742 402.751 C 418.731 398.919 418.738 395.088 418.747 391.256 C 418.741 390.128 418.734 389.001 418.726 387.839 C 418.771 380.517 419.268 374.375 423.787 368.539 C 430.496 362.428 435.536 360.846 444.183 360 C 444.489 354.72 444.796 349.44 445.11 344 Z M 431.172 378 C 429.218 386.414 430.244 395.327 430.244 404 C 476.547 404 522.85 404 570.557 404 C 570.557 395.75 570.557 387.5 570.557 379 C 566.872 374.33 566.872 374.33 562.244 372.902 C 561.243 372.92 561.243 372.92 560.22 372.938 C 558.438 372.968 558.438 372.968 556.62 373 C 556.62 377.95 556.62 382.9 556.62 388 C 552.633 388 548.647 388 544.539 388 C 544.55 387.001 544.561 386.002 544.572 384.973 C 544.58 383.682 544.588 382.392 544.597 381.063 C 544.608 379.775 544.618 378.487 544.629 377.16 C 544.878 374.137 544.878 374.137 543.61 373 C 540.862 372.911 538.136 372.885 535.389 372.902 C 534.565 372.904 533.741 372.905 532.893 372.907 C 530.251 372.912 527.609 372.925 524.968 372.938 C 523.181 372.943 521.394 372.947 519.607 372.951 C 515.219 372.962 510.829 372.979 506.441 373 C 506.441 377.95 506.441 382.9 506.441 388 C 502.76 387.67 499.081 387.34 495.29 387 C 494.983 382.38 494.677 377.76 494.36 373 C 482.095 373 469.829 373 457.192 373 C 457.192 377.95 457.192 382.9 457.192 388 C 453.205 388 449.218 388 445.11 388 C 445.11 383.05 445.11 378.1 445.11 373 C 438.984 372.665 435.669 373.161 431.172 378 Z M 431.172 417 C 429.726 420.115 430.099 423.423 430.094 426.843 C 430.09 427.653 430.086 428.463 430.081 429.297 C 430.066 431.985 430.061 434.672 430.055 437.359 C 430.049 439.225 430.044 441.092 430.04 442.958 C 430.029 446.875 430.023 450.792 430.02 454.71 C 430.015 459.725 429.993 464.739 429.966 469.754 C 429.95 473.611 429.945 477.468 429.943 481.325 C 429.94 483.174 429.932 485.022 429.921 486.87 C 429.905 489.46 429.907 492.05 429.912 494.64 C 429.904 495.4 429.896 496.161 429.886 496.945 C 429.922 501.709 430.552 505.028 433.032 509 C 436.437 511.671 438.819 512.376 443.002 512.381 C 444.066 512.389 445.128 512.398 446.224 512.407 C 447.382 512.401 448.539 512.394 449.732 512.388 C 450.958 512.393 452.184 512.399 453.448 512.404 C 456.803 512.418 460.159 512.412 463.514 512.403 C 467.03 512.395 470.545 512.402 474.059 512.407 C 479.961 512.413 485.864 512.405 491.767 512.391 C 498.587 512.375 505.407 512.38 512.228 512.397 C 518.087 512.41 523.946 512.412 529.806 512.404 C 533.303 512.4 536.802 512.399 540.299 512.409 C 544.2 512.419 548.099 512.405 551.999 512.388 C 553.156 512.394 554.314 512.4 555.507 512.407 C 556.569 512.398 557.633 512.39 558.728 512.381 C 559.649 512.38 560.572 512.379 561.52 512.378 C 564.535 511.928 566.257 510.929 568.699 509 C 571.093 505.136 570.805 501.967 570.768 497.49 C 570.769 496.166 570.769 496.166 570.769 494.815 C 570.768 491.956 570.754 489.097 570.74 486.238 C 570.737 484.474 570.735 482.71 570.733 480.946 C 570.724 474.401 570.698 467.857 570.674 461.313 C 570.637 446.689 570.597 432.066 570.557 417 C 524.56 417 478.563 417 431.172 417 Z" style="fill: rgb(255, 251, 251);"/>
  <path d="M 354.801 392.142 C 374.993 392.142 395.186 392.142 415.991 392.142 C 415.991 395.565 415.991 398.988 415.991 402.514 C 399.469 402.514 382.948 402.514 365.925 402.514 C 368.347 407.795 368.347 407.795 372.283 411.157 C 375.353 412.271 378.303 412.224 381.505 412.295 C 382.171 412.313 382.838 412.331 383.527 412.35 C 385.655 412.407 387.784 412.458 389.915 412.508 C 391.359 412.546 392.802 412.583 394.247 412.621 C 397.786 412.714 401.324 412.802 404.865 412.886 C 404.865 416.594 404.865 420.303 404.865 424.123 C 398.308 424.123 391.753 424.123 384.998 424.123 C 387.26 428.223 389.04 430.642 392.944 432.766 C 394.967 432.967 396.977 433.128 399.004 433.252 C 399.845 433.308 399.845 433.308 400.705 433.365 C 402.091 433.456 403.479 433.544 404.865 433.63 C 404.982 435.005 404.982 435.005 405.101 436.406 C 405.22 437.605 405.341 438.805 405.461 440.005 C 405.533 440.911 405.533 440.911 405.609 441.836 C 405.786 443.816 405.786 443.816 406.453 446.596 C 409.166 448.936 412.645 448.825 415.991 449.189 C 415.991 452.897 415.991 456.605 415.991 460.425 C 412.986 462.058 409.555 460.521 406.453 459.561 C 400.602 457.134 397.421 453.45 394.534 447.46 C 394.271 446.604 394.009 445.748 393.739 444.867 C 392.053 443.911 392.053 443.911 390.015 443.192 C 383.749 440.604 379.707 437.318 376.257 431.038 C 375.879 429.823 375.531 428.598 375.213 427.364 C 374.544 425.162 374.195 424.342 372.362 423.103 C 371.126 422.548 369.883 422.015 368.632 421.503 C 362.113 418.649 358.654 413.524 355.596 406.836 C 354.169 402.182 354.801 397.048 354.801 392.142 Z" style="fill: rgb(255, 251, 251);"/>
  <path d="M 584.332 386.524 C 604.57 386.524 624.808 386.524 645.661 386.524 C 645.661 397.827 645.384 403.059 638.878 410.944 C 636.395 413.544 634.049 414.894 630.87 416.28 C 627.952 417.485 627.952 417.485 625.965 419.929 C 625.657 421.08 625.368 422.235 625.093 423.396 C 623.092 429.274 618.145 433.815 613.178 436.604 C 611.346 437.512 609.73 438.224 607.757 438.641 C 607.059 438.886 607.059 438.886 606.347 439.136 C 605.772 440.571 605.203 442.011 604.688 443.472 C 602.493 448.805 598.952 451.919 594.075 454.048 C 591.089 455.022 588.225 455.307 585.119 455.524 C 585.119 451.824 585.119 448.124 585.119 444.311 C 586.221 444.116 587.324 443.92 588.46 443.719 C 590.921 443.09 592.158 442.617 594.21 440.916 C 595.913 436.936 595.588 433.11 595.339 428.786 C 597.898 427.85 599.971 427.774 602.662 427.655 C 606.849 427.317 609.494 426.884 612.638 423.611 C 613.706 421.9 614.756 420.177 615.784 418.436 C 615.19 418.44 614.601 418.445 613.993 418.45 C 611.328 418.468 608.666 418.48 606.005 418.491 C 605.072 418.498 604.141 418.505 603.184 418.512 C 602.297 418.515 601.414 418.518 600.501 418.521 C 599.274 418.528 599.274 418.528 598.019 418.535 C 596.125 418.436 596.125 418.436 595.339 417.574 C 595.283 415.832 595.273 414.088 595.29 412.345 C 595.297 411.393 595.304 410.439 595.312 409.458 C 595.321 408.72 595.331 407.984 595.339 407.224 C 596.683 407.219 596.683 407.219 598.055 407.213 C 601.403 407.194 604.748 407.147 608.095 407.092 C 609.54 407.073 610.984 407.06 612.427 407.055 C 614.512 407.047 616.598 407.012 618.682 406.971 C 619.639 406.977 619.639 406.977 620.616 406.982 C 625.221 406.855 628.917 405.624 632.294 402.049 C 633.073 400.341 633.851 398.633 634.654 396.874 C 618.047 396.874 601.441 396.874 584.332 396.874 C 584.332 393.458 584.332 390.043 584.332 386.524 Z" style="fill: rgb(255, 251, 251);"/>
  <path d="M 454.171 426.75 C 455.394 426.745 456.614 426.74 457.874 426.734 C 460.909 427 460.909 427 462.767 429 C 462.926 431.727 462.983 434.339 462.941 437.063 C 462.941 437.808 462.94 438.554 462.939 439.322 C 462.897 444.86 462.897 444.86 461.838 446 C 460.397 446.099 458.954 446.131 457.511 446.133 C 456.201 446.135 456.201 446.135 454.866 446.137 C 453.947 446.133 453.028 446.129 452.081 446.125 C 451.162 446.129 450.244 446.133 449.296 446.137 C 448.423 446.135 447.55 446.134 446.651 446.133 C 445.845 446.132 445.037 446.131 444.206 446.129 C 442.324 446 442.324 446 441.395 445 C 441.325 442.303 441.309 439.633 441.336 436.938 C 441.341 436.179 441.345 435.42 441.349 434.639 C 441.36 432.759 441.377 430.88 441.395 429 C 445.776 427.155 449.478 426.73 454.171 426.75 Z" style="fill: rgb(255, 251, 251);"/>
  <path d="M 485.185 426.875 C 486.318 426.872 487.451 426.87 488.619 426.867 C 491.574 427 491.574 427 494.36 428 C 495.74 430.972 495.412 433.696 495.405 437 C 495.409 438.887 495.409 438.887 495.413 440.813 C 495.29 444 495.29 444 494.36 446 C 487.746 447.651 480.504 447.417 473.916 446 C 473.916 440.06 473.916 434.12 473.916 428 C 477.897 427.144 481.163 426.866 485.185 426.875 Z" style="fill: rgb(255, 251, 251);"/>
  <path d="M 548.198 426.813 C 548.863 426.813 549.529 426.814 550.215 426.814 C 553.49 426.844 556.208 427.139 559.408 428 C 559.408 433.94 559.408 439.88 559.408 446 C 555.948 446.744 553.223 447.161 549.767 447.188 C 548.936 447.202 548.104 447.216 547.246 447.23 C 544.006 446.955 541.128 446.045 538.035 445 C 537.959 442.374 537.904 439.751 537.861 437.125 C 537.838 436.379 537.814 435.632 537.79 434.863 C 537.762 432.695 537.762 432.695 538.035 429 C 541.501 426.513 544.193 426.739 548.198 426.813 Z" style="fill: rgb(255, 251, 251);"/>
  <path d="M 526.883 428 C 528.092 431.815 527.714 435.276 527.407 439.25 C 527.312 440.513 527.217 441.777 527.119 443.078 C 527.041 444.042 526.964 445.007 526.883 446 C 520.685 448.011 512.657 447.808 506.441 446 C 505.059 443.028 505.388 440.304 505.395 437 C 505.392 435.742 505.39 434.484 505.387 433.188 C 505.511 430 505.511 430 506.441 428 C 509.15 427.805 511.86 427.619 514.571 427.438 C 515.722 427.353 515.722 427.353 516.894 427.268 C 517.638 427.219 518.38 427.171 519.146 427.121 C 519.827 427.074 520.507 427.027 521.21 426.978 C 523.245 427.001 524.937 427.385 526.883 428 Z" style="fill: rgb(255, 251, 251);"/>
  <path d="M 448.048 454.77 C 448.786 454.771 449.522 454.773 450.282 454.775 C 451.048 454.788 451.814 454.8 452.604 454.813 C 453.373 454.813 454.142 454.814 454.935 454.814 C 460.647 454.859 460.647 454.859 462.767 456 C 462.791 458.813 462.81 461.625 462.825 464.438 C 462.833 465.24 462.841 466.042 462.848 466.869 C 462.856 468.913 462.815 470.957 462.767 473 C 461.838 474 461.838 474 459.94 474.114 C 459.128 474.108 458.316 474.103 457.479 474.098 C 456.601 474.094 455.723 474.091 454.821 474.088 C 453.435 474.075 453.435 474.075 452.023 474.063 C 451.096 474.058 450.169 474.053 449.214 474.049 C 446.919 474.037 444.621 474.021 442.324 474 C 440.914 470.966 441.186 467.826 441.163 464.5 C 441.144 463.81 441.124 463.121 441.104 462.41 C 441.09 460.406 441.09 460.406 441.395 457 C 444.248 454.952 444.831 454.75 448.048 454.77 Z" style="fill: rgb(255, 251, 251);"/>
  <path d="M 485.127 454.688 C 486.281 454.663 486.281 454.663 487.458 454.639 C 488.563 454.638 488.563 454.638 489.689 454.637 C 490.363 454.634 491.035 454.631 491.73 454.628 C 493.432 455 493.432 455 495.29 458 C 495.504 461.285 495.504 461.285 495.464 465.063 C 495.457 466.312 495.451 467.561 495.445 468.848 C 495.29 472 495.29 472 494.36 474 C 491.128 474.029 487.894 474.047 484.662 474.063 C 483.277 474.075 483.277 474.075 481.865 474.088 C 480.988 474.091 480.11 474.094 479.206 474.098 C 477.987 474.106 477.987 474.106 476.744 474.114 C 474.847 474 474.847 474 473.916 473 C 473.776 470.34 473.702 467.724 473.686 465.063 C 473.666 464.321 473.646 463.579 473.626 462.814 C 473.612 460.66 473.612 460.66 473.916 457 C 477.711 454.278 480.675 454.669 485.127 454.688 Z" style="fill: rgb(255, 251, 251);"/>
  <path d="M 526.883 456 C 526.883 461.94 526.883 467.88 526.883 474 C 523.669 474.054 520.457 474.094 517.243 474.125 C 516.329 474.142 515.413 474.159 514.471 474.176 C 513.596 474.182 512.722 474.189 511.82 474.195 C 510.608 474.211 510.608 474.211 509.371 474.227 C 507.37 474 507.37 474 505.511 472 C 505.351 469.437 505.295 466.997 505.336 464.438 C 505.337 463.739 505.338 463.041 505.338 462.322 C 505.381 457.14 505.381 457.14 506.441 456 C 512.364 454.696 521.409 453.054 526.883 456 Z" style="fill: rgb(255, 251, 251);"/>
  <path d="M 549.243 454.75 C 549.912 454.742 550.581 454.735 551.27 454.727 C 554.789 454.741 556.414 454.852 559.408 457 C 559.638 459.772 559.71 462.299 559.639 465.063 C 559.634 465.808 559.629 466.554 559.625 467.322 C 559.55 472.846 559.55 472.846 558.478 474 C 557.038 474.099 555.594 474.131 554.151 474.133 C 552.842 474.135 552.842 474.135 551.505 474.137 C 550.586 474.133 549.667 474.129 548.721 474.125 C 547.802 474.129 546.884 474.133 545.937 474.137 C 545.063 474.135 544.19 474.134 543.29 474.133 C 542.484 474.132 541.676 474.131 540.845 474.129 C 538.964 474 538.964 474 538.035 473 C 537.966 470.303 537.948 467.633 537.976 464.938 C 537.98 464.179 537.984 463.42 537.989 462.639 C 538.001 460.759 538.017 458.88 538.035 457 C 541.564 454.501 545.17 454.703 549.243 454.75 Z" style="fill: rgb(255, 251, 251);"/>
  <path d="M 445.155 482.757 C 446.3 482.763 446.3 482.763 447.467 482.77 C 448.295 482.771 449.124 482.773 449.978 482.775 C 450.844 482.788 451.71 482.8 452.604 482.812 C 453.909 482.813 453.909 482.813 455.24 482.814 C 461.707 482.86 461.707 482.86 462.767 484 C 462.835 486.863 462.852 489.701 462.825 492.562 C 462.82 493.369 462.816 494.175 462.812 495.006 C 462.801 497.004 462.785 499.002 462.767 501 C 459.478 502.77 455.704 502.227 452.081 502.25 C 451.262 502.271 450.445 502.291 449.602 502.312 C 448.819 502.318 448.037 502.323 447.232 502.328 C 446.513 502.337 445.796 502.347 445.056 502.356 C 444.163 502.18 444.163 502.18 443.253 502 C 440.966 498.309 441.146 496.33 441.163 491.937 C 441.158 490.688 441.153 489.439 441.148 488.152 C 441.421 484.665 441.748 483.192 445.155 482.757 Z" style="fill: rgb(255, 251, 251);"/>
  <path d="M 484.081 482.813 C 485.381 482.794 485.381 482.794 486.707 482.775 C 487.95 482.772 487.95 482.772 489.217 482.77 C 489.981 482.765 490.743 482.761 491.53 482.757 C 493.432 483 493.432 483 495.29 485 C 495.474 487.545 495.549 489.957 495.523 492.5 C 495.529 493.19 495.537 493.879 495.544 494.59 C 495.525 499.747 495.525 499.747 493.432 502 C 491.629 502.243 491.629 502.243 489.453 502.23 C 488.281 502.228 488.281 502.228 487.083 502.225 C 485.855 502.206 485.855 502.206 484.604 502.188 C 483.786 502.187 482.968 502.186 482.125 502.186 C 476.037 502.14 476.037 502.14 473.916 501 C 473.893 498.187 473.874 495.375 473.86 492.563 C 473.851 491.76 473.845 490.958 473.836 490.131 C 473.828 488.087 473.869 486.043 473.916 484 C 476.056 481.7 481.21 482.815 484.081 482.813 Z" style="fill: rgb(255, 251, 251);"/>
  <path d="M 509.272 482.757 C 510.417 482.763 510.417 482.763 511.585 482.77 C 512.413 482.771 513.241 482.773 514.094 482.775 C 514.961 482.788 515.827 482.8 516.72 482.812 C 518.026 482.813 518.026 482.813 519.357 482.814 C 525.825 482.86 525.825 482.86 526.883 484 C 526.977 486.843 527.012 489.657 527 492.5 C 527.006 493.697 527.006 493.697 527.01 494.918 C 527.002 500.873 527.002 500.873 525.954 502 C 522.884 502.278 519.801 502.232 516.72 502.25 C 515.853 502.271 514.987 502.291 514.094 502.312 C 513.267 502.318 512.439 502.323 511.585 502.328 C 510.44 502.342 510.44 502.342 509.272 502.356 C 508.33 502.18 508.33 502.18 507.37 502 C 505.083 498.309 505.262 496.33 505.28 491.937 C 505.276 490.688 505.27 489.439 505.265 488.152 C 505.539 484.665 505.865 483.192 509.272 482.757 Z" style="fill: rgb(255, 251, 251);"/>
  <path d="M 541.795 482.757 C 542.94 482.763 542.94 482.763 544.108 482.77 C 544.935 482.771 545.764 482.773 546.617 482.775 C 547.484 482.788 548.351 482.8 549.243 482.812 C 550.549 482.813 550.549 482.813 551.88 482.814 C 558.347 482.86 558.347 482.86 559.408 484 C 559.474 486.863 559.492 489.701 559.464 492.562 C 559.46 493.369 559.456 494.175 559.453 495.006 C 559.442 497.004 559.424 499.002 559.408 501 C 557.249 502.162 555.971 502.129 553.571 502.133 C 552.397 502.135 552.397 502.135 551.2 502.137 C 549.974 502.131 549.974 502.131 548.721 502.125 C 547.902 502.129 547.085 502.133 546.241 502.137 C 545.459 502.135 544.677 502.134 543.871 502.133 C 543.153 502.132 542.434 502.131 541.695 502.129 C 539.893 502 539.893 502 538.035 501 C 537.984 498.375 537.947 495.751 537.919 493.125 C 537.903 492.379 537.887 491.632 537.872 490.863 C 537.855 488.908 537.938 486.953 538.035 485 C 539.893 483 539.893 483 541.795 482.757 Z" style="fill: rgb(255, 251, 251);"/>
</svg>