<?xml version="1.0" encoding="UTF-8"?>
<svg version="1.1" xmlns="http://www.w3.org/2000/svg" width="1024" height="1024">
<path d="M0 0 C9.27734375 -0.09765625 9.27734375 -0.09765625 12 0 C16.01386486 4.01386486 13 11.32353788 13 17 C26.2 17 39.4 17 53 17 C53 11.72 53 6.44 53 1 C55.50139602 -0.25069801 57.27392691 -0.13302467 60.0625 -0.125 C61.41021484 -0.12886719 61.41021484 -0.12886719 62.78515625 -0.1328125 C65 0 65 0 66 1 C66 6.28 66 11.56 66 17 C79.2 16.67 92.4 16.34 106 16 C106.33 11.05 106.66 6.1 107 1 C108 0 108 0 110.46875 -0.1328125 C111.96921875 -0.12894531 111.96921875 -0.12894531 113.5 -0.125 C114.5003125 -0.12757813 115.500625 -0.13015625 116.53125 -0.1328125 C119 0 119 0 120 1 C120.07319621 3.69654854 120.09242537 6.36691458 120.0625 9.0625 C120.05798828 9.82111328 120.05347656 10.57972656 120.04882812 11.36132812 C120.0370068 13.24091871 120.01907078 15.12046899 120 17 C120.60585938 16.94199219 121.21171875 16.88398438 121.8359375 16.82421875 C128.9436778 16.44149427 134.18479291 17.81625376 140 22 C144.80795397 27.01275525 147.11049282 31.31420379 147.16062927 38.31143188 C147.17569771 39.96411072 147.17569771 39.96411072 147.19107056 41.650177 C147.19690155 42.85954926 147.20273254 44.06892151 147.20874023 45.31494141 C147.21852402 46.58839417 147.2283078 47.86184692 147.23838806 49.17388916 C147.26975438 53.39974937 147.2900416 57.62562912 147.30859375 61.8515625 C147.31189107 62.57134513 147.31518839 63.29112777 147.31858563 64.032722 C147.34937191 70.825821 147.37606993 77.61892453 147.39300442 84.41207314 C147.4148906 93.08880271 147.45681866 101.76491189 147.52644199 110.44139349 C147.57377566 116.54854688 147.59795058 122.65553347 147.6052013 128.76286447 C147.61014462 132.40696411 147.62509656 136.05036428 147.6649456 139.69426346 C147.70888713 143.76611718 147.70489455 147.83660798 147.69702148 151.90869141 C147.71702209 153.10591827 147.73702271 154.30314514 147.75762939 155.53665161 C147.6903724 163.29891268 146.16468033 168.13592564 141 174 C136.14782242 178.61548599 131.71587308 180.24581765 125.06169128 180.26742554 C123.87156937 180.27595551 122.68144745 180.28448547 121.45526123 180.29327393 C120.1580011 180.29236755 118.86074097 180.29146118 117.52416992 180.29052734 C116.1374119 180.29651498 114.7506572 180.30332107 113.36390686 180.31088257 C109.60343726 180.32852711 105.84305872 180.33323732 102.08255172 180.33451414 C99.73078389 180.33593731 97.37903909 180.34021007 95.02727699 180.34550858 C86.81593993 180.36400456 78.60466775 180.37217983 70.39331055 180.37060547 C62.75030641 180.36940456 55.10758489 180.39049795 47.46465224 180.4220928 C40.89376668 180.44828377 34.32297325 180.45897157 27.75203592 180.45769465 C23.83153455 180.45718579 19.91128436 180.46282633 15.99083519 180.48405075 C12.30119937 180.50348067 8.61205307 180.50352567 4.92239952 180.48901749 C2.93201692 180.48594482 0.94163403 180.50257301 -1.04867554 180.51989746 C-9.30134054 180.46213633 -14.745671 179.52798015 -21.2421875 174.140625 C-22.05042969 173.20476562 -22.05042969 173.20476562 -22.875 172.25 C-23.70644531 171.32960938 -23.70644531 171.32960938 -24.5546875 170.390625 C-28.72373883 163.49478874 -28.29176909 155.53157841 -28.2746582 147.74414062 C-28.27976913 146.53662643 -28.28488007 145.32911224 -28.29014587 144.08500671 C-28.30161569 140.79367843 -28.30412344 137.50250736 -28.30158257 134.21116447 C-28.3005079 131.45527882 -28.30540868 128.69941605 -28.310188 125.94353533 C-28.32125564 119.4390645 -28.32173562 112.93465145 -28.31567383 106.43017578 C-28.30963124 99.73633534 -28.32195845 93.04270494 -28.3432439 86.34890032 C-28.36089422 80.58474155 -28.366856 74.82064945 -28.36360615 69.05646467 C-28.36179914 65.62118781 -28.36437128 62.18606092 -28.37832069 58.75080872 C-28.39067502 54.91899474 -28.38389911 51.08766575 -28.37231445 47.25585938 C-28.37995819 46.12834763 -28.38760193 45.00083588 -28.39547729 43.8391571 C-28.34661955 36.51705356 -27.81243988 30.37492786 -22.94921875 24.5390625 C-15.72821631 18.42802416 -10.30510313 16.84591847 -1 16 C-0.67 10.72 -0.34 5.44 0 0 Z M-15 34 C-17.10352956 42.41411823 -16 51.32692545 -16 60 C33.83 60 83.66 60 135 60 C135 51.75 135 43.5 135 35 C131.03327456 30.33041018 131.03327456 30.33041018 126.0546875 28.90234375 C124.97574219 28.91974609 124.97574219 28.91974609 123.875 28.9375 C121.956875 28.9684375 121.956875 28.9684375 120 29 C120 33.95 120 38.9 120 44 C115.71 44 111.42 44 107 44 C107.01160156 43.00097656 107.02320313 42.00195312 107.03515625 40.97265625 C107.04417969 39.68230469 107.05320312 38.39195312 107.0625 37.0625 C107.07410156 35.77472656 107.08570313 34.48695313 107.09765625 33.16015625 C107.36532549 30.13701597 107.36532549 30.13701597 106 29 C103.04294679 28.91131701 100.10934944 28.88479704 97.15234375 28.90234375 C96.2659169 28.9037587 95.37949005 28.90517365 94.46620178 28.90663147 C91.62326746 28.91224785 88.78041069 28.92480309 85.9375 28.9375 C84.01497509 28.94251289 82.09244896 28.94707616 80.16992188 28.95117188 C75.44658451 28.96222259 70.72330542 28.97949817 66 29 C66 33.95 66 38.9 66 44 C62.04 43.67 58.08 43.34 54 43 C53.67 38.38 53.34 33.76 53 29 C39.8 29 26.6 29 13 29 C13 33.95 13 38.9 13 44 C8.71 44 4.42 44 0 44 C0 39.05 0 34.1 0 29 C-6.59417698 28.66470287 -10.16129239 29.16129239 -15 34 Z M-15 73 C-16.5573609 76.1147218 -16.15616106 79.42328027 -16.16113281 82.84277344 C-16.16609772 83.65272766 -16.17106262 84.46268188 -16.17617798 85.29718018 C-16.19081728 87.98458702 -16.19760537 90.67193478 -16.203125 93.359375 C-16.20887605 95.22544354 -16.21463379 97.09151206 -16.22039795 98.95758057 C-16.23091368 102.8750435 -16.23675225 106.79248587 -16.24023438 110.70996094 C-16.24571308 115.72479853 -16.26972532 120.73936377 -16.29820633 125.75411606 C-16.31685196 129.61119371 -16.32203939 133.4682061 -16.32357025 137.32532501 C-16.32659416 139.17366267 -16.33461386 141.02199925 -16.34775543 142.87029266 C-16.36485234 145.46028683 -16.36292661 148.04962039 -16.35644531 150.63964844 C-16.3656601 151.40039673 -16.37487488 152.16114502 -16.3843689 152.94494629 C-16.34711674 157.70850719 -15.66803001 161.02829109 -13 165 C-9.33513275 167.67134723 -6.77256933 168.3758153 -2.26928711 168.38095093 C-1.12531464 168.3894104 0.01865784 168.39786987 1.19729614 168.40658569 C2.44316498 168.400513 3.68903381 168.39444031 4.97265625 168.38818359 C6.29184052 168.39344055 7.61102478 168.39869751 8.97018433 168.40411377 C12.58176341 168.41777195 16.19308493 168.41249505 19.80466843 168.40297651 C23.58731522 168.3953721 27.36994022 168.4024277 31.15258789 168.40713501 C37.50443473 168.41259029 43.85617687 168.40540696 50.20800781 168.39111328 C57.54770709 168.37478714 64.88715634 168.38007581 72.22684956 168.3965925 C78.53273055 168.41021388 84.83853635 168.41212385 91.1444273 168.40427649 C94.90883672 168.39960354 98.67312868 168.39896466 102.43753052 168.40888596 C106.63428514 168.41917447 110.83060989 168.40490761 115.02734375 168.38818359 C116.27321259 168.39425629 117.51908142 168.40032898 118.80270386 168.40658569 C119.94667633 168.39812622 121.0906488 168.38966675 122.26928711 168.38095093 C123.26109482 168.37981985 124.25290253 168.37868877 125.27476501 168.37752342 C128.51844711 167.92818016 130.37139219 166.92920914 133 165 C135.57580259 161.13629611 135.26619799 157.96654287 135.22705078 153.48950195 C135.22741239 152.16568276 135.22741239 152.16568276 135.2277813 150.81511974 C135.22628756 147.95607131 135.21105204 145.09728308 135.1953125 142.23828125 C135.19237225 140.47408168 135.1903317 138.70988037 135.18920898 136.94567871 C135.17871954 130.40125922 135.15079717 123.85687706 135.125 117.3125 C135.08375 102.689375 135.0425 88.06625 135 73 C85.5 73 36 73 -15 73 Z " fill="#000000" transform="translate(452,344)"/>
<path d="M0 0 C25.41 0 50.82 0 77 0 C77 3.96 77 7.92 77 12 C56.21 12 35.42 12 14 12 C17.04732693 18.11009479 17.04732693 18.11009479 22 22 C25.86323338 23.28774446 29.57490537 23.23382793 33.60546875 23.31640625 C34.44467361 23.33718735 35.28387848 23.35796844 36.14851379 23.37937927 C38.82809294 23.44474018 41.50776969 23.50369714 44.1875 23.5625 C46.00456737 23.60569802 47.82162488 23.64931273 49.63867188 23.69335938 C54.09234799 23.8004078 58.54612226 23.90171319 63 24 C63 28.29 63 32.58 63 37 C54.75 37 46.5 37 38 37 C40.84643949 41.74406581 43.08635197 44.54317599 48 47 C50.54615009 47.23172827 53.07396225 47.41894529 55.625 47.5625 C56.68460937 47.62727539 56.68460937 47.62727539 57.765625 47.69335938 C59.51018537 47.79944751 61.25506697 47.90022889 63 48 C63.14695312 49.58941406 63.14695312 49.58941406 63.296875 51.2109375 C63.44694273 52.59906397 63.59803792 53.98707963 63.75 55.375 C63.8428125 56.42300781 63.8428125 56.42300781 63.9375 57.4921875 C64.16118253 59.78363782 64.16118253 59.78363782 65 63 C68.41334064 65.70713223 72.79056465 65.57905646 77 66 C77 70.29 77 74.58 77 79 C73.220611 80.8896945 68.90201475 79.11087401 65 78 C57.63597905 75.19298085 53.63378918 70.93015508 50 64 C49.67 63.01 49.34 62.02 49 61 C46.87680898 59.89484181 46.87680898 59.89484181 44.3125 59.0625 C36.42789301 56.06791954 31.34402841 52.2663748 27 45 C26.52655504 43.59493752 26.08707825 42.17782629 25.6875 40.75 C24.8450558 38.20284519 24.40702621 37.25292575 22.1015625 35.8203125 C20.5465439 35.17813758 18.98068879 34.56172045 17.40625 33.96875 C9.20367128 30.66641311 4.84933215 24.73862277 1 17 C-0.79505494 11.61483519 0 5.67646212 0 0 Z " fill="#000000" transform="translate(336,383)"/>
<path d="M0 0 C25.74 0 51.48 0 78 0 C78 13.10516436 77.6487219 19.17054802 69.375 28.3125 C66.21542979 31.32763272 63.23215811 32.89175417 59.1875 34.5 C55.47647964 35.89706198 55.47647964 35.89706198 52.94921875 38.73046875 C52.55788995 40.06418121 52.18893083 41.4046133 51.83984375 42.75 C49.29553574 49.56637867 43.00371669 54.82964353 36.6875 58.0625 C34.35812429 59.11653313 32.30315347 59.94151553 29.79296875 60.42578125 C28.90544922 60.71001953 28.90544922 60.71001953 28 61 C27.26809777 62.66341417 26.54510147 64.33197119 25.890625 66.02734375 C23.09939023 72.20968391 18.59590715 75.81961348 12.390625 78.2890625 C8.59340905 79.41829992 4.94944218 79.74924177 1 80 C1 75.71 1 71.42 1 67 C2.4025 66.773125 3.805 66.54625 5.25 66.3125 C8.38176037 65.5825779 9.95200048 65.03629232 12.5625 63.0625 C14.7282279 58.44855796 14.31601587 54.01236288 14 49 C17.25500109 47.91499964 19.89077228 47.82563203 23.3125 47.6875 C28.63751817 47.29699867 32.00118693 46.79374573 36 43 C37.35768452 41.01645002 38.69418644 39.0180755 40 37 C39.2479126 37.00523682 38.4958252 37.01047363 37.72094727 37.01586914 C34.33480658 37.03657227 30.94867916 37.04963877 27.5625 37.0625 C26.37849609 37.07087891 25.19449219 37.07925781 23.97460938 37.08789062 C22.84990234 37.09111328 21.72519531 37.09433594 20.56640625 37.09765625 C19.00321655 37.10551147 19.00321655 37.10551147 17.40844727 37.11352539 C15 37 15 37 14 36 C13.92755947 33.98035801 13.91622812 31.95832876 13.9375 29.9375 C13.94652344 28.83277344 13.95554687 27.72804688 13.96484375 26.58984375 C13.97644531 25.73519531 13.98804688 24.88054687 14 24 C15.70929687 23.99383667 15.70929687 23.99383667 17.453125 23.98754883 C21.71024851 23.96565787 25.96646079 23.91126614 30.22314453 23.84741211 C32.05996927 23.82431857 33.89692479 23.8098568 35.73388672 23.80444336 C38.38591198 23.79509004 41.03590464 23.75396366 43.6875 23.70703125 C44.90518066 23.71293022 44.90518066 23.71293022 46.14746094 23.71894836 C52.00355986 23.57151031 56.70355694 22.14431431 61 18 C61.99 16.02 62.98 14.04 64 12 C42.88 12 21.76 12 0 12 C0 8.04 0 4.08 0 0 Z " fill="#000000" transform="translate(610,383)"/>
<path d="M0 0 C1.31484375 -0.00515625 2.6296875 -0.0103125 3.984375 -0.015625 C7.25 0.25 7.25 0.25 9.25 2.25 C9.42170903 4.97697223 9.4824568 7.58906468 9.4375 10.3125 C9.43685547 11.05822266 9.43621094 11.80394531 9.43554688 12.57226562 C9.39028159 18.10971841 9.39028159 18.10971841 8.25 19.25 C6.70044441 19.34899523 5.14646327 19.38079524 3.59375 19.3828125 C2.18416016 19.38474609 2.18416016 19.38474609 0.74609375 19.38671875 C-0.24261719 19.38285156 -1.23132813 19.37898438 -2.25 19.375 C-3.23871094 19.37886719 -4.22742188 19.38273437 -5.24609375 19.38671875 C-6.18582031 19.38542969 -7.12554687 19.38414062 -8.09375 19.3828125 C-8.96193359 19.38168457 -9.83011719 19.38055664 -10.72460938 19.37939453 C-12.75 19.25 -12.75 19.25 -13.75 18.25 C-13.82319621 15.55345146 -13.84242537 12.88308542 -13.8125 10.1875 C-13.80798828 9.42888672 -13.80347656 8.67027344 -13.79882812 7.88867188 C-13.7870068 6.00908129 -13.76907078 4.12953101 -13.75 2.25 C-9.03554614 0.40521371 -5.05015657 -0.01996109 0 0 Z " fill="#000000" transform="translate(461.75,426.75)"/>
<path d="M0 0 C1.21945312 -0.00257813 2.43890625 -0.00515625 3.6953125 -0.0078125 C6.875 0.125 6.875 0.125 9.875 1.125 C11.36119895 4.09739791 11.00677009 6.82119578 11 10.125 C11.00386719 12.0121875 11.00386719 12.0121875 11.0078125 13.9375 C10.875 17.125 10.875 17.125 9.875 19.125 C2.7553791 20.77637815 -5.03784353 20.54243129 -12.125 19.125 C-12.125 13.185 -12.125 7.245 -12.125 1.125 C-7.84294131 0.26858826 -4.32779203 -0.00918852 0 0 Z " fill="#000000" transform="translate(495.125,426.875)"/>
<path d="M0 0 C0.71607422 0.00064453 1.43214844 0.00128906 2.16992188 0.00195312 C5.69539176 0.03135927 8.61925383 0.32668846 12.0625 1.1875 C12.0625 7.1275 12.0625 13.0675 12.0625 19.1875 C8.34018913 19.93196217 5.40732938 20.34835366 1.6875 20.375 C0.79289063 20.38917969 -0.10171875 20.40335937 -1.0234375 20.41796875 C-4.51102875 20.14214049 -7.6073294 19.2328265 -10.9375 18.1875 C-11.01824203 15.56188891 -11.0778623 12.93874324 -11.125 10.3125 C-11.15013672 9.56613281 -11.17527344 8.81976563 -11.20117188 8.05078125 C-11.23046875 5.8828125 -11.23046875 5.8828125 -10.9375 2.1875 C-7.20653192 -0.29981205 -4.31028041 -0.07331721 0 0 Z " fill="#000000" transform="translate(562.9375,426.8125)"/>
<path d="M0 0 C1.30062431 3.81516464 0.89369853 7.27561763 0.5625 11.25 C0.46066406 12.51328125 0.35882812 13.7765625 0.25390625 15.078125 C0.17011719 16.04234375 0.08632813 17.0065625 0 18 C-6.67143731 20.01100742 -15.31002497 19.80810136 -22 18 C-23.48619895 15.02760209 -23.13177009 12.30380422 -23.125 9 C-23.12757813 7.741875 -23.13015625 6.48375 -23.1328125 5.1875 C-23 2 -23 2 -22 0 C-19.08365878 -0.19502282 -16.16720455 -0.38129328 -13.25 -0.5625 C-12.0125 -0.64661133 -12.0125 -0.64661133 -10.75 -0.73242188 C-9.95078125 -0.78076172 -9.1515625 -0.82910156 -8.328125 -0.87890625 C-7.5949707 -0.9260376 -6.86181641 -0.97316895 -6.10644531 -1.02172852 C-3.91642774 -0.99913793 -2.09512813 -0.61487456 0 0 Z " fill="#000000" transform="translate(540,428)"/>
<path d="M0 0 C0.79341797 0.00193359 1.58683594 0.00386719 2.40429688 0.00585938 C3.22865234 0.01810547 4.05300781 0.03035156 4.90234375 0.04296875 C5.73056641 0.04361328 6.55878906 0.04425781 7.41210938 0.04492188 C13.55877439 0.08993407 13.55877439 0.08993407 15.83984375 1.23046875 C15.86668687 4.04303156 15.88660563 6.85534116 15.90234375 9.66796875 C15.91072266 10.47041016 15.91910156 11.27285156 15.92773438 12.09960938 C15.93635805 14.14342096 15.89212525 16.18730777 15.83984375 18.23046875 C14.83984375 19.23046875 14.83984375 19.23046875 12.79858398 19.34399414 C11.92403564 19.33875732 11.0494873 19.33352051 10.1484375 19.328125 C9.20419922 19.32490234 8.25996094 19.32167969 7.28710938 19.31835938 C5.79727539 19.30579102 5.79727539 19.30579102 4.27734375 19.29296875 C3.28025391 19.28845703 2.28316406 19.28394531 1.25585938 19.27929688 C-1.21620474 19.26746882 -3.68815143 19.25098724 -6.16015625 19.23046875 C-7.67730915 16.19616294 -7.38528941 13.0564091 -7.41015625 9.73046875 C-7.43078125 9.04082031 -7.45140625 8.35117187 -7.47265625 7.640625 C-7.48828125 5.63671875 -7.48828125 5.63671875 -7.16015625 2.23046875 C-4.08871492 0.1828412 -3.46164666 -0.01960075 0 0 Z " fill="#000000" transform="translate(455.16015625,454.76953125)"/>
<path d="M0 0 C1.24233398 -0.02416992 1.24233398 -0.02416992 2.50976562 -0.04882812 C3.69795898 -0.04979492 3.69795898 -0.04979492 4.91015625 -0.05078125 C5.63468994 -0.05376221 6.35922363 -0.05674316 7.10571289 -0.05981445 C8.9375 0.3125 8.9375 0.3125 10.9375 3.3125 C11.16796875 6.59765625 11.16796875 6.59765625 11.125 10.375 C11.11855469 11.62410156 11.11210937 12.87320312 11.10546875 14.16015625 C10.9375 17.3125 10.9375 17.3125 9.9375 19.3125 C6.45835059 19.34137814 2.97923169 19.35925687 -0.5 19.375 C-1.98983398 19.38756836 -1.98983398 19.38756836 -3.50976562 19.40039062 C-4.45400391 19.40361328 -5.39824219 19.40683594 -6.37109375 19.41015625 C-7.68291626 19.41801147 -7.68291626 19.41801147 -9.02124023 19.42602539 C-11.0625 19.3125 -11.0625 19.3125 -12.0625 18.3125 C-12.21567991 15.65247189 -12.29409875 13.0362812 -12.3125 10.375 C-12.333125 9.63314453 -12.35375 8.89128906 -12.375 8.12695312 C-12.390625 5.97265625 -12.390625 5.97265625 -12.0625 2.3125 C-7.97986982 -0.40925345 -4.79107759 -0.01872978 0 0 Z " fill="#000000" transform="translate(495.0625,454.6875)"/>
<path d="M0 0 C0 5.94 0 11.88 0 18 C-3.4585388 18.05375967 -6.91624908 18.09355681 -10.375 18.125 C-11.35984375 18.14175781 -12.3446875 18.15851563 -13.359375 18.17578125 C-14.30039062 18.18222656 -15.24140625 18.18867188 -16.2109375 18.1953125 C-17.51490479 18.21102295 -17.51490479 18.21102295 -18.84521484 18.22705078 C-21 18 -21 18 -23 16 C-23.17163731 13.43707683 -23.23264558 10.99654143 -23.1875 8.4375 C-23.18685547 7.73947266 -23.18621094 7.04144531 -23.18554688 6.32226562 C-23.14031158 1.14031158 -23.14031158 1.14031158 -22 0 C-15.62476607 -1.30402512 -5.89176643 -2.94588322 0 0 Z " fill="#000000" transform="translate(540,456)"/>
<path d="M0 0 C0.71994141 -0.00773437 1.43988281 -0.01546875 2.18164062 -0.0234375 C5.96684363 -0.00937918 7.71610465 0.1024031 10.9375 2.25 C11.18599576 5.02191102 11.26433409 7.54887388 11.1875 10.3125 C11.18234375 11.05822266 11.1771875 11.80394531 11.171875 12.57226562 C11.09160426 18.09589574 11.09160426 18.09589574 9.9375 19.25 C8.38794441 19.34899523 6.83396327 19.38079524 5.28125 19.3828125 C3.87166016 19.38474609 3.87166016 19.38474609 2.43359375 19.38671875 C1.44488281 19.38285156 0.45617187 19.37898438 -0.5625 19.375 C-1.55121094 19.37886719 -2.53992188 19.38273437 -3.55859375 19.38671875 C-4.49832031 19.38542969 -5.43804688 19.38414062 -6.40625 19.3828125 C-7.27443359 19.38168457 -8.14261719 19.38055664 -9.03710938 19.37939453 C-11.0625 19.25 -11.0625 19.25 -12.0625 18.25 C-12.13569621 15.55345146 -12.15492537 12.88308542 -12.125 10.1875 C-12.12048828 9.42888672 -12.11597656 8.67027344 -12.11132812 7.88867188 C-12.0995068 6.00908129 -12.08157078 4.12953101 -12.0625 2.25 C-8.26393621 -0.24931612 -4.38269162 -0.0473378 0 0 Z " fill="#000000" transform="translate(564.0625,454.75)"/>
<path d="M0 0 C1.23157837 0.00616333 1.23157837 0.00616333 2.48803711 0.01245117 C3.37942383 0.01438477 4.27081055 0.01631836 5.18920898 0.01831055 C6.1218457 0.03055664 7.05448242 0.04280273 8.01538086 0.05541992 C9.42013672 0.05638672 9.42013672 0.05638672 10.85327148 0.05737305 C17.81268862 0.10272768 17.81268862 0.10272768 18.95288086 1.24291992 C19.02613254 4.10559559 19.04526291 6.94363892 19.01538086 9.80541992 C19.01086914 10.61172852 19.00635742 11.41803711 19.00170898 12.2487793 C18.98988604 14.24685748 18.97195 16.24489775 18.95288086 18.24291992 C15.41275561 20.01298255 11.35219967 19.4700835 7.45288086 19.49291992 C6.57245117 19.51354492 5.69202148 19.53416992 4.78491211 19.55541992 C3.9431543 19.56057617 3.10139648 19.56573242 2.23413086 19.57104492 C1.46133789 19.58039063 0.68854492 19.58973633 -0.10766602 19.59936523 C-1.06769531 19.4229248 -1.06769531 19.4229248 -2.04711914 19.24291992 C-4.50774893 15.55197524 -4.31528691 13.57247797 -4.29711914 9.18041992 C-4.30227539 7.93131836 -4.30743164 6.6822168 -4.31274414 5.39526367 C-4.01888577 1.90785629 -3.66603845 0.43502782 0 0 Z " fill="#000000" transform="translate(452.047119140625,482.757080078125)"/>
<path d="M0 0 C1.39895508 -0.01836914 1.39895508 -0.01836914 2.82617188 -0.03710938 C4.16325195 -0.04000977 4.16325195 -0.04000977 5.52734375 -0.04296875 C6.348396 -0.04707764 7.16944824 -0.05118652 8.01538086 -0.05541992 C10.0625 0.1875 10.0625 0.1875 12.0625 2.1875 C12.26099071 4.73285141 12.34101775 7.14466759 12.3125 9.6875 C12.32023437 10.37714844 12.32796875 11.06679688 12.3359375 11.77734375 C12.31583293 16.93416707 12.31583293 16.93416707 10.0625 19.1875 C8.12304688 19.43041992 8.12304688 19.43041992 5.78125 19.41796875 C4.51861328 19.41506836 4.51861328 19.41506836 3.23046875 19.41210938 C1.90982422 19.39374023 1.90982422 19.39374023 0.5625 19.375 C-0.31792969 19.37435547 -1.19835937 19.37371094 -2.10546875 19.37304688 C-8.65669885 19.32790057 -8.65669885 19.32790057 -10.9375 18.1875 C-10.96434312 15.37493719 -10.98426188 12.56262759 -11 9.75 C-11.00837891 8.94755859 -11.01675781 8.14511719 -11.02539062 7.31835938 C-11.0340143 5.27454779 -10.9897815 3.23066098 -10.9375 1.1875 C-8.63740227 -1.11259773 -3.08959334 0.00212635 0 0 Z " fill="#000000" transform="translate(493.9375,482.8125)"/>
<path d="M0 0 C1.23157837 0.00616333 1.23157837 0.00616333 2.48803711 0.01245117 C3.37942383 0.01438477 4.27081055 0.01631836 5.18920898 0.01831055 C6.1218457 0.03055664 7.05448242 0.04280273 8.01538086 0.05541992 C9.42013672 0.05638672 9.42013672 0.05638672 10.85327148 0.05737305 C17.81268862 0.10272768 17.81268862 0.10272768 18.95288086 1.24291992 C19.05275061 4.0862704 19.09165967 6.89989155 19.07788086 9.74291992 C19.08368164 10.93981445 19.08368164 10.93981445 19.08959961 12.16088867 C19.07948853 18.11631225 19.07948853 18.11631225 17.95288086 19.24291992 C14.64849177 19.52056433 11.33005952 19.4746698 8.01538086 19.49291992 C7.08274414 19.51354492 6.15010742 19.53416992 5.18920898 19.55541992 C4.29782227 19.56057617 3.40643555 19.56573242 2.48803711 19.57104492 C1.25645874 19.58506348 1.25645874 19.58506348 0 19.59936523 C-1.01332397 19.4229248 -1.01332397 19.4229248 -2.04711914 19.24291992 C-4.50774893 15.55197524 -4.31528691 13.57247797 -4.29711914 9.18041992 C-4.30227539 7.93131836 -4.30743164 6.6822168 -4.31274414 5.39526367 C-4.01888577 1.90785629 -3.66603845 0.43502782 0 0 Z " fill="#000000" transform="translate(521.047119140625,482.757080078125)"/>
<path d="M0 0 C1.23157837 0.00616333 1.23157837 0.00616333 2.48803711 0.01245117 C3.37942383 0.01438477 4.27081055 0.01631836 5.18920898 0.01831055 C6.1218457 0.03055664 7.05448242 0.04280273 8.01538086 0.05541992 C9.42013672 0.05638672 9.42013672 0.05638672 10.85327148 0.05737305 C17.81268862 0.10272768 17.81268862 0.10272768 18.95288086 1.24291992 C19.02613254 4.10559559 19.04526291 6.94363892 19.01538086 9.80541992 C19.01086914 10.61172852 19.00635742 11.41803711 19.00170898 12.2487793 C18.98988604 14.24685748 18.97195 16.24489775 18.95288086 18.24291992 C16.6294453 19.4046377 15.2565477 19.37195961 12.67163086 19.37573242 C11.40899414 19.37766602 11.40899414 19.37766602 10.12084961 19.37963867 C8.80020508 19.37383789 8.80020508 19.37383789 7.45288086 19.36791992 C6.57245117 19.37178711 5.69202148 19.3756543 4.78491211 19.37963867 C3.9431543 19.37834961 3.10139648 19.37706055 2.23413086 19.37573242 C1.46133789 19.37460449 0.68854492 19.37347656 -0.10766602 19.37231445 C-2.04711914 19.24291992 -2.04711914 19.24291992 -4.04711914 18.24291992 C-4.1009402 15.61764803 -4.14070227 12.99347279 -4.17211914 10.36791992 C-4.18887695 9.62155273 -4.20563477 8.87518555 -4.22290039 8.10620117 C-4.24051504 6.15097531 -4.15032103 4.19549971 -4.04711914 2.24291992 C-2.04711914 0.24291992 -2.04711914 0.24291992 0 0 Z " fill="#000000" transform="translate(556.047119140625,482.757080078125)"/>
<path d="M0 0 C3.29459081 3.11204093 5.47557495 7.14500788 7.828125 10.98046875 C8.44171875 11.97691406 9.0553125 12.97335937 9.6875 14 C10.24824219 14.94875 10.80898438 15.8975 11.38671875 16.875 C11.91910156 17.57625 12.45148437 18.2775 13 19 C13.99 19 14.98 19 16 19 C17.32019258 17.32283293 17.32019258 17.32283293 18.41796875 15.09765625 C18.86849609 14.29005859 19.31902344 13.48246094 19.78320312 12.65039062 C20.71334926 10.93628266 21.63024917 9.21491486 22.53320312 7.48632812 C25.96549367 1.41083498 25.96549367 1.41083498 29.07666016 0.17529297 C32.01059414 -0.2375918 34.31412167 -0.34293916 37 1 C37 15.52 37 30.04 37 45 C34.36 45 31.72 45 29 45 C27.28556781 43.28556781 27.76947033 40.99554759 27.68359375 38.65234375 C27.64169922 37.57275391 27.59980469 36.49316406 27.55664062 35.38085938 C27.51732422 34.24455078 27.47800781 33.10824219 27.4375 31.9375 C27.39431641 30.79732422 27.35113281 29.65714844 27.30664062 28.48242188 C27.20017161 25.65507805 27.09815793 22.82764262 27 20 C26.43152344 21.0828125 25.86304688 22.165625 25.27734375 23.28125 C24.49879106 24.68827293 23.71876561 26.09448164 22.9375 27.5 C22.56689453 28.21542969 22.19628906 28.93085937 21.81445312 29.66796875 C20.67430072 31.6800024 19.61646879 33.34497014 18 35 C14.5 35.9375 14.5 35.9375 11 35 C8.82663515 32.77478925 7.48590325 30.24778714 6.0625 27.5 C5.66482422 26.78457031 5.26714844 26.06914063 4.85742188 25.33203125 C3.88113425 23.56765603 2.93732433 21.78537967 2 20 C1.98541748 20.71655762 1.97083496 21.43311523 1.95581055 22.17138672 C1.88151 25.40647983 1.78479139 28.64052019 1.6875 31.875 C1.65366211 33.56689453 1.65366211 33.56689453 1.61914062 35.29296875 C1.58369141 36.36933594 1.54824219 37.44570313 1.51171875 38.5546875 C1.48553467 39.54968262 1.45935059 40.54467773 1.43237305 41.56982422 C1.28968994 42.37178223 1.14700684 43.17374023 1 44 C-2.22213757 46.14809171 -3.27775401 46.29386153 -7 46 C-8 45 -8 45 -8.12025452 43.20933533 C-8.11803391 42.42990067 -8.11581329 41.650466 -8.11352539 40.84741211 C-8.11341209 39.52615578 -8.11341209 39.52615578 -8.11329651 38.1782074 C-8.10555458 36.74227989 -8.10555458 36.74227989 -8.09765625 35.27734375 C-8.0962413 34.30213272 -8.09482635 33.32692169 -8.09336853 32.32215881 C-8.08775133 29.19390857 -8.07519593 26.06572877 -8.0625 22.9375 C-8.05748722 20.82226666 -8.05292393 18.70703219 -8.04882812 16.59179688 C-8.03777631 11.39450704 -8.02102146 6.19725855 -8 1 C-4.97599876 -0.51200062 -3.36096166 -0.5817049 0 0 Z " fill="#000000" transform="translate(713,588)"/>
<path d="M0 0 C0 5.28 0 10.56 0 16 C5.31536854 11.51298195 5.31536854 11.51298195 10.1484375 6.53125 C15.64977765 0.25535293 15.64977765 0.25535293 20.015625 -0.5703125 C22.73646706 -0.56333598 25.31179968 -0.40699855 28 0 C26.64556914 3.05777443 25.15295264 5.04421157 22.70703125 7.3125 C22.07732422 7.91320312 21.44761719 8.51390625 20.79882812 9.1328125 C19.46837518 10.38346443 18.13236097 11.62822504 16.79101562 12.8671875 C16.16517578 13.46789062 15.53933594 14.06859375 14.89453125 14.6875 C14.31550049 15.22761719 13.73646973 15.76773438 13.13989258 16.32421875 C11.77145801 17.95030037 11.77145801 17.95030037 12.20751953 20.06787109 C13.32466699 22.79156333 15.03949692 24.49442729 17.0625 26.625 C20.34336707 30.16875706 23.51872782 33.74963786 26.5625 37.5 C27.22378906 38.3146875 27.88507813 39.129375 28.56640625 39.96875 C30 42 30 42 30 44 C26.09924397 44.81485813 22.88753674 44.95508619 19 44 C13.78287777 39.71498573 9.92715955 34.49053596 5.80859375 29.16796875 C4.18213999 26.92426504 4.18213999 26.92426504 2 26 C0.81304447 29.56086658 0.64904582 32.97331024 0.4375 36.6875 C0.39431641 37.38939453 0.35113281 38.09128906 0.30664062 38.81445312 C0.2008264 40.54275206 0.09993419 42.2713511 0 44 C-6.15234375 44.09765625 -6.15234375 44.09765625 -8 44 C-9 43 -9 43 -9.11352539 39.03100586 C-9.1133662 37.25894393 -9.10766785 35.4868774 -9.09765625 33.71484375 C-9.0962413 32.78402481 -9.09482635 31.85320587 -9.09336853 30.8941803 C-9.08775172 27.90858809 -9.0751964 24.92306971 -9.0625 21.9375 C-9.05748716 19.91862087 -9.05292388 17.89974057 -9.04882812 15.88085938 C-9.03777683 10.92054428 -9.02050095 5.96028468 -9 1 C-5.19495213 -0.79682816 -4.29399165 -1.07349791 0 0 Z " fill="#000000" transform="translate(284,589)"/>
<path d="M0 0 C1.37478516 0.01740234 1.37478516 0.01740234 2.77734375 0.03515625 C3.69644531 0.04417969 4.61554688 0.05320312 5.5625 0.0625 C6.27277344 0.07410156 6.98304688 0.08570313 7.71484375 0.09765625 C18.60364675 24.58728928 18.60364675 24.58728928 22.40234375 33.91015625 C23.08876953 35.59044922 23.08876953 35.59044922 23.7890625 37.3046875 C24.71484375 40.09765625 24.71484375 40.09765625 24.71484375 44.09765625 C18.26158373 45.4370121 18.26158373 45.4370121 15.90234375 43.97265625 C14.71484375 42.09765625 14.71484375 42.09765625 12.71484375 37.09765625 C6.11484375 37.09765625 -0.48515625 37.09765625 -7.28515625 37.09765625 C-8.27515625 39.40765625 -9.26515625 41.71765625 -10.28515625 44.09765625 C-16.04920119 45.71563378 -16.04920119 45.71563378 -19.28515625 44.09765625 C-18.72880773 38.42495503 -17.17416897 33.79775575 -14.94140625 28.57421875 C-14.6122522 27.78743744 -14.28309814 27.00065613 -13.94396973 26.19003296 C-13.25178824 24.53963094 -12.55571924 22.89085448 -11.85595703 21.24365234 C-10.78095903 18.7127747 -9.71762301 16.17724282 -8.65625 13.640625 C-7.98113487 12.03487603 -7.30537656 10.42939728 -6.62890625 8.82421875 C-6.3090979 8.06388336 -5.98928955 7.30354797 -5.65979004 6.52017212 C-2.93912095 0.12560346 -2.93912095 0.12560346 0 0 Z M1.71484375 13.09765625 C0.87498291 15.03233567 0.04316348 16.97050754 -0.78515625 18.91015625 C-1.24921875 19.98910156 -1.71328125 21.06804688 -2.19140625 22.1796875 C-3.46064928 25.04647649 -3.46064928 25.04647649 -3.28515625 28.09765625 C0.67484375 28.09765625 4.63484375 28.09765625 8.71484375 28.09765625 C6.52404435 20.48996173 6.52404435 20.48996173 3.71484375 13.09765625 C3.05484375 13.09765625 2.39484375 13.09765625 1.71484375 13.09765625 Z " fill="#000000" transform="translate(338.28515625,588.90234375)"/>
<path d="M0 0 C2.64 0 5.28 0 8 0 C9.53297297 3.06594594 9.12131455 6.27111853 9.09765625 9.6328125 C9.0962413 10.38464813 9.09482635 11.13648376 9.09336853 11.91110229 C9.08776465 14.3157751 9.07521157 16.72035527 9.0625 19.125 C9.0574855 20.75390491 9.0529225 22.38281127 9.04882812 24.01171875 C9.03864424 28.00787702 9.01906972 32.00383465 9 36 C15.93 36 22.86 36 30 36 C31 42 31 42 30 44 C20.1 44 10.2 44 0 44 C0 29.48 0 14.96 0 0 Z " fill="#000000" transform="translate(371,589)"/>
<path d="M0 0 C1.29349365 0.00523682 2.5869873 0.01047363 3.91967773 0.01586914 C4.9496714 0.01799156 4.9496714 0.01799156 6.00047302 0.02015686 C8.20144949 0.0257706 10.40232557 0.03832532 12.60327148 0.05102539 C14.09220231 0.05603863 15.58113473 0.06060184 17.07006836 0.06469727 C20.72700223 0.07574446 24.38387707 0.09301826 28.04077148 0.11352539 C29.20629767 4.30941966 29.1303118 4.93444475 27.04077148 9.11352539 C19.78077148 9.11352539 12.52077148 9.11352539 5.04077148 9.11352539 C5.37077148 11.75352539 5.70077148 14.39352539 6.04077148 17.11352539 C12.31077148 17.44352539 18.58077148 17.77352539 25.04077148 18.11352539 C25.04077148 20.75352539 25.04077148 23.39352539 25.04077148 26.11352539 C18.44077148 26.11352539 11.84077148 26.11352539 5.04077148 26.11352539 C5.04077148 29.41352539 5.04077148 32.71352539 5.04077148 36.11352539 C12.63077148 36.11352539 20.22077148 36.11352539 28.04077148 36.11352539 C28.53577148 39.57852539 28.53577148 39.57852539 29.04077148 43.11352539 C27.13227201 45.02202487 23.72598374 44.24412172 21.19702148 44.24633789 C20.51273071 44.24729462 19.82843994 44.24825134 19.12341309 44.24923706 C17.67415271 44.24991869 16.2248893 44.24806562 14.77563477 44.24389648 C12.55014221 44.23854791 10.32485148 44.24384199 8.09936523 44.25024414 C6.69441687 44.24958336 5.28946863 44.24830219 3.88452148 44.24633789 C2.59739258 44.24520996 1.31026367 44.24408203 -0.01586914 44.24291992 C-2.95922852 44.11352539 -2.95922852 44.11352539 -3.95922852 43.11352539 C-4.06039772 40.02271074 -4.09891409 36.95469984 -4.09204102 33.86352539 C-4.09299774 32.93507813 -4.09395447 32.00663086 -4.09494019 31.05004883 C-4.09562207 29.08292574 -4.09376723 27.11580043 -4.08959961 25.14868164 C-4.08425147 22.12649513 -4.08954434 19.10445724 -4.09594727 16.08227539 C-4.09528649 14.17602506 -4.09400533 12.26977482 -4.09204102 10.36352539 C-4.09406525 9.453125 -4.09608948 8.54272461 -4.09817505 7.60473633 C-4.07014252 0.15614357 -4.07014252 0.15614357 0 0 Z " fill="#000000" transform="translate(412.959228515625,588.886474609375)"/>
<path d="M0 0 C0 14.19 0 28.38 0 43 C-6 45 -6 45 -8.5 44.140625 C-12.02709467 41.12055019 -14.41724396 37.58480276 -17 33.75 C-18.02072225 32.26554861 -19.04155442 30.7811728 -20.0625 29.296875 C-20.50722656 28.64041992 -20.95195312 27.98396484 -21.41015625 27.30761719 C-23.56686671 24.17720759 -25.79046414 21.09335021 -28 18 C-28.66 26.58 -29.32 35.16 -30 44 C-32.64 44 -35.28 44 -38 44 C-38 29.48 -38 14.96 -38 0 C-29 0 -29 0 -25.99609375 2.89453125 C-25.11268195 4.18005464 -24.26080617 5.48767785 -23.4375 6.8125 C-22.5131028 8.18495104 -21.58862286 9.55734637 -20.6640625 10.9296875 C-19.99552246 11.95787598 -19.99552246 11.95787598 -19.31347656 13.00683594 C-17.41116413 15.89354202 -15.36696212 18.65707953 -13.3125 21.4375 C-12.219375 22.943125 -11.12625 24.44875 -10 26 C-9.67 17.42 -9.34 8.84 -9 0 C-5 -1 -5 -1 0 0 Z " fill="#000000" transform="translate(489,589)"/>
<path d="M0 0 C3.66639248 -0.11728126 7.3322952 -0.18760891 11 -0.25 C12.02996094 -0.28351562 13.05992187 -0.31703125 14.12109375 -0.3515625 C21.78709253 -0.44921854 26.99334957 0.76476753 32.98828125 5.60546875 C37.70367728 11.23890648 40.42414311 17.09501073 40 24.5625 C38.85609214 31.47411172 35.34253462 36.2084677 29.875 40.4375 C25.79039119 43.35394248 22.67365569 44.12526882 17.67578125 44.09765625 C16.13374023 44.09282227 16.13374023 44.09282227 14.56054688 44.08789062 C13.48869141 44.07951172 12.41683594 44.07113281 11.3125 44.0625 C10.22904297 44.05798828 9.14558594 44.05347656 8.02929688 44.04882812 C5.35280915 44.03703743 2.67643223 44.02058063 0 44 C-0.84325776 38.88392919 -1.14733438 33.91857397 -1.1328125 28.73046875 C-1.13424759 27.58714836 -1.13424759 27.58714836 -1.13571167 26.42073059 C-1.13638773 24.82321082 -1.1345738 23.22568821 -1.13037109 21.62817383 C-1.1249773 19.17718426 -1.13035446 16.72637484 -1.13671875 14.27539062 C-1.13605859 12.7187496 -1.13477873 11.16210868 -1.1328125 9.60546875 C-1.13483673 8.87216843 -1.13686096 8.1388681 -1.13894653 7.38334656 C-1.11498679 2.22997358 -1.11498679 2.22997358 0 0 Z M9 8 C8.80418654 12.47884439 8.6197364 16.95808426 8.4375 21.4375 C8.38142578 22.71689453 8.32535156 23.99628906 8.26757812 25.31445312 C8.21923828 26.52939453 8.17089844 27.74433594 8.12109375 28.99609375 C8.0739624 30.12200928 8.02683105 31.2479248 7.97827148 32.40795898 C7.69649008 34.93020828 7.69649008 34.93020828 9 36 C14.95026742 36.58270039 19.94620463 36.48952537 25 33 C28.95819761 28.61388914 30.31222138 26.01065816 30.21484375 20.02734375 C29.77973919 15.92153894 27.70235329 13.67225243 24.8125 10.90625 C21.41969021 8.60667892 19.25037483 8.41415656 15.1875 8.25 C14.02605469 8.19328125 12.86460937 8.1365625 11.66796875 8.078125 C10.34732422 8.03945313 10.34732422 8.03945313 9 8 Z " fill="#000000" transform="translate(499,589)"/>
<path d="M0 0 C3.3 0 6.6 0 10 0 C14.53236561 8.65502586 18.18299903 17.5678413 21.8125 26.625 C22.41563686 28.12124649 23.01914979 29.61734143 23.62304688 31.11328125 C25.08636744 34.74045718 26.54460198 38.36963833 28 42 C26.68359375 43.4921875 26.68359375 43.4921875 25 45 C22.0625 45.125 22.0625 45.125 19 44 C18.48824219 42.84113281 17.97648438 41.68226563 17.44921875 40.48828125 C16.11768355 38.00749113 15.53848946 37.16377081 12.80688477 36.33300781 C10.10164772 36.08551341 7.4661973 36.03016432 4.75 36.0625 C3.81414063 36.04638672 2.87828125 36.03027344 1.9140625 36.01367188 C-0.39211185 35.97837329 -2.6938216 35.97490522 -5 36 C-5.30550781 36.95003906 -5.61101563 37.90007813 -5.92578125 38.87890625 C-7.53525087 43.55514706 -7.53525087 43.55514706 -10 45 C-13.6875 44.6875 -13.6875 44.6875 -17 44 C-16.38880083 38.57133661 -14.54186391 34.06683394 -12.40234375 29.1015625 C-11.87176109 27.84912247 -11.87176109 27.84912247 -11.33045959 26.57138062 C-10.20556246 23.91994935 -9.07168341 21.27247033 -7.9375 18.625 C-7.17062676 16.82186845 -6.40434418 15.01848558 -5.63867188 13.21484375 C-3.76594169 8.80695618 -1.88514968 4.40258952 0 0 Z M5 13 C4.18247697 14.58074564 3.37118003 16.16471223 2.5625 17.75 C2.11003906 18.63171875 1.65757812 19.5134375 1.19140625 20.421875 C0.16103492 22.65153099 -0.6130597 24.58026069 -1 27 C0.05978933 28.28612676 0.05978933 28.28612676 2.50390625 28.09765625 C3.51324219 28.08605469 4.52257812 28.07445312 5.5625 28.0625 C6.57441406 28.05347656 7.58632813 28.04445313 8.62890625 28.03515625 C9.41136719 28.02355469 10.19382812 28.01195312 11 28 C10.43174347 22.45949887 8.37113483 17.96284034 6 13 C5.67 13 5.34 13 5 13 Z " fill="#000000" transform="translate(559,589)"/>
<path d="M0 0 C4.16625 -0.0825 8.3325 -0.165 12.625 -0.25 C13.92775879 -0.28641602 15.23051758 -0.32283203 16.57275391 -0.36035156 C27.19129633 -0.46227905 27.19129633 -0.46227905 32 4 C35.51852019 8.00383333 36.35956173 11.60053726 36.28125 16.9453125 C35.51330463 22.55558003 30.82313044 26.22759102 27 30 C27.6496875 30.75925781 28.299375 31.51851562 28.96875 32.30078125 C30.22171875 33.79158203 30.22171875 33.79158203 31.5 35.3125 C32.3353125 36.29863281 33.170625 37.28476562 34.03125 38.30078125 C36 41 36 41 36 44 C32.45205715 44.7332909 29.52812224 44.90527408 26 44 C22.42162993 40.72296636 19.76439889 36.96786565 17 33 C14.74813012 30.36063799 14.74813012 30.36063799 9 30 C9 34.62 9 39.24 9 44 C3 45 3 45 0 44 C0 29.48 0 14.96 0 0 Z M9 9 C9 12.96 9 16.92 9 21 C11.24834496 21.13526139 13.49902514 21.23210804 15.75 21.3125 C17.62945313 21.39951172 17.62945313 21.39951172 19.546875 21.48828125 C23.14148164 21.32213002 23.14148164 21.32213002 25.4609375 18.6484375 C27.24901572 16.12228293 27.24901572 16.12228293 26.875 13.3125 C26.12456118 10.85048935 26.12456118 10.85048935 24 9 C21.41935871 8.85502015 18.95056116 8.81322455 16.375 8.875 C15.66859375 8.88402344 14.9621875 8.89304687 14.234375 8.90234375 C12.48943902 8.92592397 10.74467705 8.96179539 9 9 Z " fill="#000000" transform="translate(594,589)"/>
<path d="M0 0 C0.07401579 5.94479629 0.12853813 11.88932593 0.16479492 17.83447266 C0.17990526 19.85795766 0.20039437 21.8814098 0.22631836 23.90478516 C0.26260328 26.80900165 0.27970355 29.71278615 0.29296875 32.6171875 C0.30845261 33.52556366 0.32393646 34.43393982 0.33988953 35.36984253 C0.34022942 36.63092331 0.34022942 36.63092331 0.34057617 37.91748047 C0.34723801 38.65916473 0.35389984 39.400849 0.36076355 40.16500854 C0.24171158 40.77055573 0.12265961 41.37610291 0 42 C-3 44 -3 44 -9 43 C-9 28.48 -9 13.96 -9 -1 C-4.70600835 -2.07349791 -3.80504787 -1.79682816 0 0 Z " fill="#000000" transform="translate(648,590)"/>
<path d="M0 0 C0.09943798 4.5714698 0.17173349 9.14229975 0.21972656 13.71459961 C0.2397487 15.26744565 0.26697517 16.82021719 0.30175781 18.37280273 C0.3506961 20.61460832 0.37306168 22.85541093 0.390625 25.09765625 C0.41127014 25.78336197 0.43191528 26.46906769 0.45318604 27.17555237 C0.45568663 32.63947931 -0.9836982 35.60909919 -4 40 C-10.80015682 45.27359101 -16.63455626 45.59911666 -25 45 C-30.22167216 43.29108911 -32.81637302 40.42170415 -36 36 C-38.09781388 31.83387416 -38.23345199 28.36441648 -38.1953125 23.73046875 C-38.1924826 23.04946609 -38.18965271 22.36846344 -38.18673706 21.66682434 C-38.17560525 19.50686545 -38.15051457 17.34733206 -38.125 15.1875 C-38.11496111 13.71680289 -38.10583685 12.24609924 -38.09765625 10.77539062 C-38.07568913 7.18345714 -38.0412082 3.59177015 -38 0 C-35.03 0 -32.06 0 -29 0 C-28.98541748 0.85231201 -28.97083496 1.70462402 -28.95581055 2.58276367 C-28.89456715 5.76071175 -28.82037971 8.93802546 -28.73754883 12.11547852 C-28.70440194 13.48775958 -28.67633829 14.86017362 -28.65356445 16.23266602 C-28.61983234 18.21137766 -28.5659851 20.18971376 -28.51171875 22.16796875 C-28.48553467 23.35672607 -28.45935059 24.5454834 -28.43237305 25.77026367 C-27.96468107 29.263825 -27.09456428 31.19216035 -25 34 C-21.85154494 35.57422753 -18.40781928 35.66928343 -15 35 C-12.27913716 33.48403733 -12.27913716 33.48403733 -10 31 C-9.22099815 27.62811381 -9.22099815 27.62811381 -9.29296875 23.828125 C-9.27784744 23.1457074 -9.26272614 22.46328979 -9.24714661 21.76019287 C-9.20430606 19.58979155 -9.19543661 17.42078177 -9.1875 15.25 C-9.16435237 13.77470268 -9.13898645 12.29943839 -9.11132812 10.82421875 C-9.04851626 7.21617268 -9.01614936 3.60859084 -9 0 C-5.52176885 -1.15941038 -3.54104422 -0.70820884 0 0 Z " fill="#000000" transform="translate(695,589)"/>
<path d="M0 0 C1.17755859 -0.00193359 1.17755859 -0.00193359 2.37890625 -0.00390625 C3.55259766 -0.03291016 3.55259766 -0.03291016 4.75 -0.0625 C7.75952461 0.61880058 8.27762226 1.8779714 9.94140625 4.43359375 C10.68334122 6.11899769 11.36103579 7.83363328 11.984375 9.56640625 C12.33564453 10.53707031 12.68691406 11.50773438 13.04882812 12.5078125 C13.5834668 14.01794922 13.5834668 14.01794922 14.12890625 15.55859375 C14.49693359 16.57308594 14.86496094 17.58757813 15.24414062 18.6328125 C17.94140625 26.14912599 17.94140625 26.14912599 17.94140625 28.43359375 C15.63140625 28.76359375 13.32140625 29.09359375 10.94140625 29.43359375 C10.67328125 28.62921875 10.40515625 27.82484375 10.12890625 26.99609375 C7.41380335 23.81554464 6.3133057 23.9654644 2.25390625 23.62109375 C0.48400719 23.53615696 -1.28696675 23.46668016 -3.05859375 23.43359375 C-3.71859375 25.41359375 -4.37859375 27.39359375 -5.05859375 29.43359375 C-7.03859375 29.43359375 -9.01859375 29.43359375 -11.05859375 29.43359375 C-12.2692427 25.80164691 -11.72783285 24.76159679 -10.4765625 21.21484375 C-10.12142578 20.20035156 -9.76628906 19.18585937 -9.40039062 18.140625 C-9.01947266 17.08230469 -8.63855469 16.02398438 -8.24609375 14.93359375 C-7.87677734 13.87527344 -7.50746094 12.81695313 -7.12695312 11.7265625 C-3.21699 0.67758233 -3.21699 0.67758233 0 0 Z M1.94140625 8.43359375 C0.95140625 11.73359375 -0.03859375 15.03359375 -1.05859375 18.43359375 C1.25140625 18.43359375 3.56140625 18.43359375 5.94140625 18.43359375 C5.47336858 12.79001193 5.47336858 12.79001193 1.94140625 8.43359375 Z " fill="#000000" transform="translate(421.05859375,650.56640625)"/>
<path d="M0 0 C0.84175781 -0.00128906 1.68351562 -0.00257813 2.55078125 -0.00390625 C3.87142578 0.00189453 3.87142578 0.00189453 5.21875 0.0078125 C6.09917969 0.00394531 6.97960937 0.00007812 7.88671875 -0.00390625 C9.14935547 -0.00197266 9.14935547 -0.00197266 10.4375 0 C11.21029297 0.00112793 11.98308594 0.00225586 12.77929688 0.00341797 C14.71875 0.1328125 14.71875 0.1328125 16.71875 1.1328125 C16.38875 2.7828125 16.05875 4.4328125 15.71875 6.1328125 C11.09875 6.4628125 6.47875 6.7928125 1.71875 7.1328125 C1.38875 8.4528125 1.05875 9.7728125 0.71875 11.1328125 C4.67875 11.1328125 8.63875 11.1328125 12.71875 11.1328125 C12.71875 13.1128125 12.71875 15.0928125 12.71875 17.1328125 C9.08875 17.1328125 5.45875 17.1328125 1.71875 17.1328125 C1.71875 19.1128125 1.71875 21.0928125 1.71875 23.1328125 C6.33875 23.1328125 10.95875 23.1328125 15.71875 23.1328125 C16.04875 24.7828125 16.37875 26.4328125 16.71875 28.1328125 C9.12875 28.1328125 1.53875 28.1328125 -6.28125 28.1328125 C-6.28125 19.2228125 -6.28125 10.3128125 -6.28125 1.1328125 C-3.95781444 -0.02890528 -2.58491684 0.00377281 0 0 Z " fill="#000000" transform="translate(458.28125,650.8671875)"/>
<path d="M0 0 C0.81210937 -0.020625 1.62421875 -0.04125 2.4609375 -0.0625 C7.24861876 -0.09369011 10.3285223 0.19310006 14.25 3.25 C15.25 4.25 15.25 4.25 15.34765625 6.39453125 C15.33605469 7.27496094 15.32445312 8.15539062 15.3125 9.0625 C15.30347656 9.93519531 15.29445313 10.80789063 15.28515625 11.70703125 C15.27355469 12.54621094 15.26195312 13.38539063 15.25 14.25 C15.25 18.03392776 15.66933671 21.49934108 16.2265625 25.2265625 C16.23429688 25.89429688 16.24203125 26.56203125 16.25 27.25 C15.59 27.91 14.93 28.57 14.25 29.25 C11.125 28.875 11.125 28.875 8.25 28.25 C7.92 25.61 7.59 22.97 7.25 20.25 C3.95 19.92 0.65 19.59 -2.75 19.25 C-2.75 22.22 -2.75 25.19 -2.75 28.25 C-7.5 29.375 -7.5 29.375 -9.75 28.25 C-9.77886338 23.77084672 -9.79675187 19.29171709 -9.8125 14.8125 C-9.82087891 13.53310547 -9.82925781 12.25371094 -9.83789062 10.93554688 C-9.84111328 9.72060547 -9.84433594 8.50566406 -9.84765625 7.25390625 C-9.85289307 6.12799072 -9.85812988 5.0020752 -9.86352539 3.84204102 C-9.6189525 -1.7421103 -4.40828504 0.02746595 0 0 Z M-2.75 6.25 C-2.75 8.56 -2.75 10.87 -2.75 13.25 C-1.10425434 13.27688151 0.54161413 13.29634123 2.1875 13.3125 C3.56228516 13.32990234 3.56228516 13.32990234 4.96484375 13.34765625 C7.21593327 13.50949049 7.21593327 13.50949049 8.25 12.25 C8.29063832 10.58382885 8.292721 8.91611905 8.25 7.25 C5.84454362 6.04727181 4.30003047 6.14928528 1.625 6.1875 C0.80773437 6.19652344 -0.00953125 6.20554687 -0.8515625 6.21484375 C-1.47804688 6.22644531 -2.10453125 6.23804688 -2.75 6.25 Z " fill="#000000" transform="translate(498.75,650.75)"/>
<path d="M0 0 C1.53239831 4.59719492 1.18442938 9.18526035 1.1875 14 C1.19974609 15.010625 1.21199219 16.02125 1.22460938 17.0625 C1.22750977 18.5165625 1.22750977 18.5165625 1.23046875 20 C1.23457764 20.886875 1.23868652 21.77375 1.24291992 22.6875 C1 25 1 25 -1 28 C-2.98 27.67 -4.96 27.34 -7 27 C-7 18.09 -7 9.18 -7 0 C-4.3333581 -1.33332095 -2.83319697 -0.67102033 0 0 Z " fill="#000000" transform="translate(537,652)"/>
<path d="M0 0 C2.27864583 0.06510417 4.55729167 0.13020833 6.8359375 0.1953125 C9.8219202 5.86867963 12.11773459 11.47490859 14.0859375 17.5703125 C14.3540625 18.37597656 14.6221875 19.18164062 14.8984375 20.01171875 C16.8359375 25.91318559 16.8359375 25.91318559 16.8359375 28.1953125 C14.0234375 28.8828125 14.0234375 28.8828125 10.8359375 29.1953125 C8.75463113 27.68815961 7.97980532 26.48304813 6.8359375 24.1953125 C3.45829923 23.91014604 0.20151135 23.73015189 -3.1640625 24.1953125 C-4.95375276 26.62203817 -4.95375276 26.62203817 -6.1640625 29.1953125 C-9.3515625 29.5078125 -9.3515625 29.5078125 -12.1640625 29.1953125 C-11.62268729 22.77297093 -10.01645543 17.32720067 -7.7265625 11.3203125 C-7.25766602 10.04027344 -7.25766602 10.04027344 -6.77929688 8.734375 C-3.63353298 0.32793619 -3.63353298 0.32793619 0 0 Z M0.8359375 8.1953125 C-0.48032942 11.81504652 -1.1640625 14.29098381 -1.1640625 18.1953125 C1.1459375 18.1953125 3.4559375 18.1953125 5.8359375 18.1953125 C4.8459375 14.8953125 3.8559375 11.5953125 2.8359375 8.1953125 C2.1759375 8.1953125 1.5159375 8.1953125 0.8359375 8.1953125 Z " fill="#000000" transform="translate(564.1640625,650.8046875)"/>
<path d="M0 0 C2.5 0.125 2.5 0.125 3.5 1.125 C3.58685603 2.68672745 3.60702219 4.25229344 3.59765625 5.81640625 C3.59443359 6.76064453 3.59121094 7.70488281 3.58789062 8.67773438 C3.57951172 9.67095703 3.57113281 10.66417969 3.5625 11.6875 C3.55798828 12.68458984 3.55347656 13.68167969 3.54882812 14.70898438 C3.53700007 17.18104849 3.52051849 19.65299518 3.5 22.125 C4.34304688 22.11339844 5.18609375 22.10179687 6.0546875 22.08984375 C7.15039062 22.08082031 8.24609375 22.07179688 9.375 22.0625 C10.46554687 22.05089844 11.55609375 22.03929687 12.6796875 22.02734375 C15.5 22.125 15.5 22.125 17.5 23.125 C17.5 24.775 17.5 26.425 17.5 28.125 C14.07851142 29.83574429 10.27061317 29.35165255 6.5 29.375 C5.25089844 29.4059375 5.25089844 29.4059375 3.9765625 29.4375 C3.17992187 29.44265625 2.38328125 29.4478125 1.5625 29.453125 C0.46615234 29.46714355 0.46615234 29.46714355 -0.65234375 29.48144531 C-1.56693359 29.30500488 -1.56693359 29.30500488 -2.5 29.125 C-4.82461026 25.63808461 -4.69508443 24.48514796 -4.51171875 20.3984375 C-4.46466797 19.2846875 -4.41761719 18.1709375 -4.36914062 17.0234375 C-4.30919922 15.86070312 -4.24925781 14.69796875 -4.1875 13.5 C-4.13916016 12.32953125 -4.09082031 11.1590625 -4.04101562 9.953125 C-3.59315954 0.17965798 -3.59315954 0.17965798 0 0 Z " fill="#000000" transform="translate(598.5,650.875)"/>
</svg>
