<svg xmlns="http://www.w3.org/2000/svg" version="1.1" viewBox="329.728 266.24 366.592 362.496" style="max-height: 500px" width="366.592" height="362.496">
  <path transform="translate(452,344)" fill="#000000" d="M0 0 C9.27734375 -0.09765625 9.27734375 -0.09765625 12 0 C16.01386486 4.01386486 13 11.32353788 13 17 C26.2 17 39.4 17 53 17 C53 11.72 53 6.44 53 1 C55.50139602 -0.25069801 57.27392691 -0.13302467 60.0625 -0.125 C61.41021484 -0.12886719 61.41021484 -0.12886719 62.78515625 -0.1328125 C65 0 65 0 66 1 C66 6.28 66 11.56 66 17 C79.2 16.67 92.4 16.34 106 16 C106.33 11.05 106.66 6.1 107 1 C108 0 108 0 110.46875 -0.1328125 C111.96921875 -0.12894531 111.96921875 -0.12894531 113.5 -0.125 C114.5003125 -0.12757813 115.500625 -0.13015625 116.53125 -0.1328125 C119 0 119 0 120 1 C120.07319621 3.69654854 120.09242537 6.36691458 120.0625 9.0625 C120.05798828 9.82111328 120.05347656 10.57972656 120.04882812 11.36132812 C120.0370068 13.24091871 120.01907078 15.12046899 120 17 C120.60585938 16.94199219 121.21171875 16.88398438 121.8359375 16.82421875 C128.9436778 16.44149427 134.18479291 17.81625376 140 22 C144.80795397 27.01275525 147.11049282 31.31420379 147.16062927 38.31143188 C147.17569771 39.96411072 147.17569771 39.96411072 147.19107056 41.650177 C147.19690155 42.85954926 147.20273254 44.06892151 147.20874023 45.31494141 C147.21852402 46.58839417 147.2283078 47.86184692 147.23838806 49.17388916 C147.26975438 53.39974937 147.2900416 57.62562912 147.30859375 61.8515625 C147.31189107 62.57134513 147.31518839 63.29112777 147.31858563 64.032722 C147.34937191 70.825821 147.37606993 77.61892453 147.39300442 84.41207314 C147.4148906 93.08880271 147.45681866 101.76491189 147.52644199 110.44139349 C147.57377566 116.54854688 147.59795058 122.65553347 147.6052013 128.76286447 C147.61014462 132.40696411 147.62509656 136.05036428 147.6649456 139.69426346 C147.70888713 143.76611718 147.70489455 147.83660798 147.69702148 151.90869141 C147.71702209 153.10591827 147.73702271 154.30314514 147.75762939 155.53665161 C147.6903724 163.29891268 146.16468033 168.13592564 141 174 C136.14782242 178.61548599 131.71587308 180.24581765 125.06169128 180.26742554 C123.87156937 180.27595551 122.68144745 180.28448547 121.45526123 180.29327393 C120.1580011 180.29236755 118.86074097 180.29146118 117.52416992 180.29052734 C116.1374119 180.29651498 114.7506572 180.30332107 113.36390686 180.31088257 C109.60343726 180.32852711 105.84305872 180.33323732 102.08255172 180.33451414 C99.73078389 180.33593731 97.37903909 180.34021007 95.02727699 180.34550858 C86.81593993 180.36400456 78.60466775 180.37217983 70.39331055 180.37060547 C62.75030641 180.36940456 55.10758489 180.39049795 47.46465224 180.4220928 C40.89376668 180.44828377 34.32297325 180.45897157 27.75203592 180.45769465 C23.83153455 180.45718579 19.91128436 180.46282633 15.99083519 180.48405075 C12.30119937 180.50348067 8.61205307 180.50352567 4.92239952 180.48901749 C2.93201692 180.48594482 0.94163403 180.50257301 -1.04867554 180.51989746 C-9.30134054 180.46213633 -14.745671 179.52798015 -21.2421875 174.140625 C-22.05042969 173.20476562 -22.05042969 173.20476562 -22.875 172.25 C-23.70644531 171.32960938 -23.70644531 171.32960938 -24.5546875 170.390625 C-28.72373883 163.49478874 -28.29176909 155.53157841 -28.2746582 147.74414062 C-28.27976913 146.53662643 -28.28488007 145.32911224 -28.29014587 144.08500671 C-28.30161569 140.79367843 -28.30412344 137.50250736 -28.30158257 134.21116447 C-28.3005079 131.45527882 -28.30540868 128.69941605 -28.310188 125.94353533 C-28.32125564 119.4390645 -28.32173562 112.93465145 -28.31567383 106.43017578 C-28.30963124 99.73633534 -28.32195845 93.04270494 -28.3432439 86.34890032 C-28.36089422 80.58474155 -28.366856 74.82064945 -28.36360615 69.05646467 C-28.36179914 65.62118781 -28.36437128 62.18606092 -28.37832069 58.75080872 C-28.39067502 54.91899474 -28.38389911 51.08766575 -28.37231445 47.25585938 C-28.37995819 46.12834763 -28.38760193 45.00083588 -28.39547729 43.8391571 C-28.34661955 36.51705356 -27.81243988 30.37492786 -22.94921875 24.5390625 C-15.72821631 18.42802416 -10.30510313 16.84591847 -1 16 C-0.67 10.72 -0.34 5.44 0 0 Z M-15 34 C-17.10352956 42.41411823 -16 51.32692545 -16 60 C33.83 60 83.66 60 135 60 C135 51.75 135 43.5 135 35 C131.03327456 30.33041018 131.03327456 30.33041018 126.0546875 28.90234375 C124.97574219 28.91974609 124.97574219 28.91974609 123.875 28.9375 C121.956875 28.9684375 121.956875 28.9684375 120 29 C120 33.95 120 38.9 120 44 C115.71 44 111.42 44 107 44 C107.01160156 43.00097656 107.02320313 42.00195312 107.03515625 40.97265625 C107.04417969 39.68230469 107.05320312 38.39195312 107.0625 37.0625 C107.07410156 35.77472656 107.08570313 34.48695313 107.09765625 33.16015625 C107.36532549 30.13701597 107.36532549 30.13701597 106 29 C103.04294679 28.91131701 100.10934944 28.88479704 97.15234375 28.90234375 C96.2659169 28.9037587 95.37949005 28.90517365 94.46620178 28.90663147 C91.62326746 28.91224785 88.78041069 28.92480309 85.9375 28.9375 C84.01497509 28.94251289 82.09244896 28.94707616 80.16992188 28.95117188 C75.44658451 28.96222259 70.72330542 28.97949817 66 29 C66 33.95 66 38.9 66 44 C62.04 43.67 58.08 43.34 54 43 C53.67 38.38 53.34 33.76 53 29 C39.8 29 26.6 29 13 29 C13 33.95 13 38.9 13 44 C8.71 44 4.42 44 0 44 C0 39.05 0 34.1 0 29 C-6.59417698 28.66470287 -10.16129239 29.16129239 -15 34 Z M-15 73 C-16.5573609 76.1147218 -16.15616106 79.42328027 -16.16113281 82.84277344 C-16.16609772 83.65272766 -16.17106262 84.46268188 -16.17617798 85.29718018 C-16.19081728 87.98458702 -16.19760537 90.67193478 -16.203125 93.359375 C-16.20887605 95.22544354 -16.21463379 97.09151206 -16.22039795 98.95758057 C-16.23091368 102.8750435 -16.23675225 106.79248587 -16.24023438 110.70996094 C-16.24571308 115.72479853 -16.26972532 120.73936377 -16.29820633 125.75411606 C-16.31685196 129.61119371 -16.32203939 133.4682061 -16.32357025 137.32532501 C-16.32659416 139.17366267 -16.33461386 141.02199925 -16.34775543 142.87029266 C-16.36485234 145.46028683 -16.36292661 148.04962039 -16.35644531 150.63964844 C-16.3656601 151.40039673 -16.37487488 152.16114502 -16.3843689 152.94494629 C-16.34711674 157.70850719 -15.66803001 161.02829109 -13 165 C-9.33513275 167.67134723 -6.77256933 168.3758153 -2.26928711 168.38095093 C-1.12531464 168.3894104 0.01865784 168.39786987 1.19729614 168.40658569 C2.44316498 168.400513 3.68903381 168.39444031 4.97265625 168.38818359 C6.29184052 168.39344055 7.61102478 168.39869751 8.97018433 168.40411377 C12.58176341 168.41777195 16.19308493 168.41249505 19.80466843 168.40297651 C23.58731522 168.3953721 27.36994022 168.4024277 31.15258789 168.40713501 C37.50443473 168.41259029 43.85617687 168.40540696 50.20800781 168.39111328 C57.54770709 168.37478714 64.88715634 168.38007581 72.22684956 168.3965925 C78.53273055 168.41021388 84.83853635 168.41212385 91.1444273 168.40427649 C94.90883672 168.39960354 98.67312868 168.39896466 102.43753052 168.40888596 C106.63428514 168.41917447 110.83060989 168.40490761 115.02734375 168.38818359 C116.27321259 168.39425629 117.51908142 168.40032898 118.80270386 168.40658569 C119.94667633 168.39812622 121.0906488 168.38966675 122.26928711 168.38095093 C123.26109482 168.37981985 124.25290253 168.37868877 125.27476501 168.37752342 C128.51844711 167.92818016 130.37139219 166.92920914 133 165 C135.57580259 161.13629611 135.26619799 157.96654287 135.22705078 153.48950195 C135.22741239 152.16568276 135.22741239 152.16568276 135.2277813 150.81511974 C135.22628756 147.95607131 135.21105204 145.09728308 135.1953125 142.23828125 C135.19237225 140.47408168 135.1903317 138.70988037 135.18920898 136.94567871 C135.17871954 130.40125922 135.15079717 123.85687706 135.125 117.3125 C135.08375 102.689375 135.0425 88.06625 135 73 C85.5 73 36 73 -15 73 Z"/>
  <path transform="translate(336,383)" fill="#000000" d="M0 0 C25.41 0 50.82 0 77 0 C77 3.96 77 7.92 77 12 C56.21 12 35.42 12 14 12 C17.04732693 18.11009479 17.04732693 18.11009479 22 22 C25.86323338 23.28774446 29.57490537 23.23382793 33.60546875 23.31640625 C34.44467361 23.33718735 35.28387848 23.35796844 36.14851379 23.37937927 C38.82809294 23.44474018 41.50776969 23.50369714 44.1875 23.5625 C46.00456737 23.60569802 47.82162488 23.64931273 49.63867188 23.69335938 C54.09234799 23.8004078 58.54612226 23.90171319 63 24 C63 28.29 63 32.58 63 37 C54.75 37 46.5 37 38 37 C40.84643949 41.74406581 43.08635197 44.54317599 48 47 C50.54615009 47.23172827 53.07396225 47.41894529 55.625 47.5625 C56.68460937 47.62727539 56.68460937 47.62727539 57.765625 47.69335938 C59.51018537 47.79944751 61.25506697 47.90022889 63 48 C63.14695312 49.58941406 63.14695312 49.58941406 63.296875 51.2109375 C63.44694273 52.59906397 63.59803792 53.98707963 63.75 55.375 C63.8428125 56.42300781 63.8428125 56.42300781 63.9375 57.4921875 C64.16118253 59.78363782 64.16118253 59.78363782 65 63 C68.41334064 65.70713223 72.79056465 65.57905646 77 66 C77 70.29 77 74.58 77 79 C73.220611 80.8896945 68.90201475 79.11087401 65 78 C57.63597905 75.19298085 53.63378918 70.93015508 50 64 C49.67 63.01 49.34 62.02 49 61 C46.87680898 59.89484181 46.87680898 59.89484181 44.3125 59.0625 C36.42789301 56.06791954 31.34402841 52.2663748 27 45 C26.52655504 43.59493752 26.08707825 42.17782629 25.6875 40.75 C24.8450558 38.20284519 24.40702621 37.25292575 22.1015625 35.8203125 C20.5465439 35.17813758 18.98068879 34.56172045 17.40625 33.96875 C9.20367128 30.66641311 4.84933215 24.73862277 1 17 C-0.79505494 11.61483519 0 5.67646212 0 0 Z"/>
  <path transform="translate(610,383)" fill="#000000" d="M0 0 C25.74 0 51.48 0 78 0 C78 13.10516436 77.6487219 19.17054802 69.375 28.3125 C66.21542979 31.32763272 63.23215811 32.89175417 59.1875 34.5 C55.47647964 35.89706198 55.47647964 35.89706198 52.94921875 38.73046875 C52.55788995 40.06418121 52.18893083 41.4046133 51.83984375 42.75 C49.29553574 49.56637867 43.00371669 54.82964353 36.6875 58.0625 C34.35812429 59.11653313 32.30315347 59.94151553 29.79296875 60.42578125 C28.90544922 60.71001953 28.90544922 60.71001953 28 61 C27.26809777 62.66341417 26.54510147 64.33197119 25.890625 66.02734375 C23.09939023 72.20968391 18.59590715 75.81961348 12.390625 78.2890625 C8.59340905 79.41829992 4.94944218 79.74924177 1 80 C1 75.71 1 71.42 1 67 C2.4025 66.773125 3.805 66.54625 5.25 66.3125 C8.38176037 65.5825779 9.95200048 65.03629232 12.5625 63.0625 C14.7282279 58.44855796 14.31601587 54.01236288 14 49 C17.25500109 47.91499964 19.89077228 47.82563203 23.3125 47.6875 C28.63751817 47.29699867 32.00118693 46.79374573 36 43 C37.35768452 41.01645002 38.69418644 39.0180755 40 37 C39.2479126 37.00523682 38.4958252 37.01047363 37.72094727 37.01586914 C34.33480658 37.03657227 30.94867916 37.04963877 27.5625 37.0625 C26.37849609 37.07087891 25.19449219 37.07925781 23.97460938 37.08789062 C22.84990234 37.09111328 21.72519531 37.09433594 20.56640625 37.09765625 C19.00321655 37.10551147 19.00321655 37.10551147 17.40844727 37.11352539 C15 37 15 37 14 36 C13.92755947 33.98035801 13.91622812 31.95832876 13.9375 29.9375 C13.94652344 28.83277344 13.95554687 27.72804688 13.96484375 26.58984375 C13.97644531 25.73519531 13.98804688 24.88054687 14 24 C15.70929687 23.99383667 15.70929687 23.99383667 17.453125 23.98754883 C21.71024851 23.96565787 25.96646079 23.91126614 30.22314453 23.84741211 C32.05996927 23.82431857 33.89692479 23.8098568 35.73388672 23.80444336 C38.38591198 23.79509004 41.03590464 23.75396366 43.6875 23.70703125 C44.90518066 23.71293022 44.90518066 23.71293022 46.14746094 23.71894836 C52.00355986 23.57151031 56.70355694 22.14431431 61 18 C61.99 16.02 62.98 14.04 64 12 C42.88 12 21.76 12 0 12 C0 8.04 0 4.08 0 0 Z"/>
  <path transform="translate(461.75,426.75)" fill="#000000" d="M0 0 C1.31484375 -0.00515625 2.6296875 -0.0103125 3.984375 -0.015625 C7.25 0.25 7.25 0.25 9.25 2.25 C9.42170903 4.97697223 9.4824568 7.58906468 9.4375 10.3125 C9.43685547 11.05822266 9.43621094 11.80394531 9.43554688 12.57226562 C9.39028159 18.10971841 9.39028159 18.10971841 8.25 19.25 C6.70044441 19.34899523 5.14646327 19.38079524 3.59375 19.3828125 C2.18416016 19.38474609 2.18416016 19.38474609 0.74609375 19.38671875 C-0.24261719 19.38285156 -1.23132813 19.37898438 -2.25 19.375 C-3.23871094 19.37886719 -4.22742188 19.38273437 -5.24609375 19.38671875 C-6.18582031 19.38542969 -7.12554687 19.38414062 -8.09375 19.3828125 C-8.96193359 19.38168457 -9.83011719 19.38055664 -10.72460938 19.37939453 C-12.75 19.25 -12.75 19.25 -13.75 18.25 C-13.82319621 15.55345146 -13.84242537 12.88308542 -13.8125 10.1875 C-13.80798828 9.42888672 -13.80347656 8.67027344 -13.79882812 7.88867188 C-13.7870068 6.00908129 -13.76907078 4.12953101 -13.75 2.25 C-9.03554614 0.40521371 -5.05015657 -0.01996109 0 0 Z"/>
  <path transform="translate(495.125,426.875)" fill="#000000" d="M0 0 C1.21945312 -0.00257813 2.43890625 -0.00515625 3.6953125 -0.0078125 C6.875 0.125 6.875 0.125 9.875 1.125 C11.36119895 4.09739791 11.00677009 6.82119578 11 10.125 C11.00386719 12.0121875 11.00386719 12.0121875 11.0078125 13.9375 C10.875 17.125 10.875 17.125 9.875 19.125 C2.7553791 20.77637815 -5.03784353 20.54243129 -12.125 19.125 C-12.125 13.185 -12.125 7.245 -12.125 1.125 C-7.84294131 0.26858826 -4.32779203 -0.00918852 0 0 Z"/>
  <path transform="translate(562.9375,426.8125)" fill="#000000" d="M0 0 C0.71607422 0.00064453 1.43214844 0.00128906 2.16992188 0.00195312 C5.69539176 0.03135927 8.61925383 0.32668846 12.0625 1.1875 C12.0625 7.1275 12.0625 13.0675 12.0625 19.1875 C8.34018913 19.93196217 5.40732938 20.34835366 1.6875 20.375 C0.79289063 20.38917969 -0.10171875 20.40335937 -1.0234375 20.41796875 C-4.51102875 20.14214049 -7.6073294 19.2328265 -10.9375 18.1875 C-11.01824203 15.56188891 -11.0778623 12.93874324 -11.125 10.3125 C-11.15013672 9.56613281 -11.17527344 8.81976563 -11.20117188 8.05078125 C-11.23046875 5.8828125 -11.23046875 5.8828125 -10.9375 2.1875 C-7.20653192 -0.29981205 -4.31028041 -0.07331721 0 0 Z"/>
  <path transform="translate(540,428)" fill="#000000" d="M0 0 C1.30062431 3.81516464 0.89369853 7.27561763 0.5625 11.25 C0.46066406 12.51328125 0.35882812 13.7765625 0.25390625 15.078125 C0.17011719 16.04234375 0.08632813 17.0065625 0 18 C-6.67143731 20.01100742 -15.31002497 19.80810136 -22 18 C-23.48619895 15.02760209 -23.13177009 12.30380422 -23.125 9 C-23.12757813 7.741875 -23.13015625 6.48375 -23.1328125 5.1875 C-23 2 -23 2 -22 0 C-19.08365878 -0.19502282 -16.16720455 -0.38129328 -13.25 -0.5625 C-12.0125 -0.64661133 -12.0125 -0.64661133 -10.75 -0.73242188 C-9.95078125 -0.78076172 -9.1515625 -0.82910156 -8.328125 -0.87890625 C-7.5949707 -0.9260376 -6.86181641 -0.97316895 -6.10644531 -1.02172852 C-3.91642774 -0.99913793 -2.09512813 -0.61487456 0 0 Z"/>
  <path transform="translate(455.16015625,454.76953125)" fill="#000000" d="M0 0 C0.79341797 0.00193359 1.58683594 0.00386719 2.40429688 0.00585938 C3.22865234 0.01810547 4.05300781 0.03035156 4.90234375 0.04296875 C5.73056641 0.04361328 6.55878906 0.04425781 7.41210938 0.04492188 C13.55877439 0.08993407 13.55877439 0.08993407 15.83984375 1.23046875 C15.86668687 4.04303156 15.88660563 6.85534116 15.90234375 9.66796875 C15.91072266 10.47041016 15.91910156 11.27285156 15.92773438 12.09960938 C15.93635805 14.14342096 15.89212525 16.18730777 15.83984375 18.23046875 C14.83984375 19.23046875 14.83984375 19.23046875 12.79858398 19.34399414 C11.92403564 19.33875732 11.0494873 19.33352051 10.1484375 19.328125 C9.20419922 19.32490234 8.25996094 19.32167969 7.28710938 19.31835938 C5.79727539 19.30579102 5.79727539 19.30579102 4.27734375 19.29296875 C3.28025391 19.28845703 2.28316406 19.28394531 1.25585938 19.27929688 C-1.21620474 19.26746882 -3.68815143 19.25098724 -6.16015625 19.23046875 C-7.67730915 16.19616294 -7.38528941 13.0564091 -7.41015625 9.73046875 C-7.43078125 9.04082031 -7.45140625 8.35117187 -7.47265625 7.640625 C-7.48828125 5.63671875 -7.48828125 5.63671875 -7.16015625 2.23046875 C-4.08871492 0.1828412 -3.46164666 -0.01960075 0 0 Z"/>
  <path transform="translate(495.0625,454.6875)" fill="#000000" d="M0 0 C1.24233398 -0.02416992 1.24233398 -0.02416992 2.50976562 -0.04882812 C3.69795898 -0.04979492 3.69795898 -0.04979492 4.91015625 -0.05078125 C5.63468994 -0.05376221 6.35922363 -0.05674316 7.10571289 -0.05981445 C8.9375 0.3125 8.9375 0.3125 10.9375 3.3125 C11.16796875 6.59765625 11.16796875 6.59765625 11.125 10.375 C11.11855469 11.62410156 11.11210937 12.87320312 11.10546875 14.16015625 C10.9375 17.3125 10.9375 17.3125 9.9375 19.3125 C6.45835059 19.34137814 2.97923169 19.35925687 -0.5 19.375 C-1.98983398 19.38756836 -1.98983398 19.38756836 -3.50976562 19.40039062 C-4.45400391 19.40361328 -5.39824219 19.40683594 -6.37109375 19.41015625 C-7.68291626 19.41801147 -7.68291626 19.41801147 -9.02124023 19.42602539 C-11.0625 19.3125 -11.0625 19.3125 -12.0625 18.3125 C-12.21567991 15.65247189 -12.29409875 13.0362812 -12.3125 10.375 C-12.333125 9.63314453 -12.35375 8.89128906 -12.375 8.12695312 C-12.390625 5.97265625 -12.390625 5.97265625 -12.0625 2.3125 C-7.97986982 -0.40925345 -4.79107759 -0.01872978 0 0 Z"/>
  <path transform="translate(540,456)" fill="#000000" d="M0 0 C0 5.94 0 11.88 0 18 C-3.4585388 18.05375967 -6.91624908 18.09355681 -10.375 18.125 C-11.35984375 18.14175781 -12.3446875 18.15851563 -13.359375 18.17578125 C-14.30039062 18.18222656 -15.24140625 18.18867188 -16.2109375 18.1953125 C-17.51490479 18.21102295 -17.51490479 18.21102295 -18.84521484 18.22705078 C-21 18 -21 18 -23 16 C-23.17163731 13.43707683 -23.23264558 10.99654143 -23.1875 8.4375 C-23.18685547 7.73947266 -23.18621094 7.04144531 -23.18554688 6.32226562 C-23.14031158 1.14031158 -23.14031158 1.14031158 -22 0 C-15.62476607 -1.30402512 -5.89176643 -2.94588322 0 0 Z"/>
  <path transform="translate(564.0625,454.75)" fill="#000000" d="M0 0 C0.71994141 -0.00773437 1.43988281 -0.01546875 2.18164062 -0.0234375 C5.96684363 -0.00937918 7.71610465 0.1024031 10.9375 2.25 C11.18599576 5.02191102 11.26433409 7.54887388 11.1875 10.3125 C11.18234375 11.05822266 11.1771875 11.80394531 11.171875 12.57226562 C11.09160426 18.09589574 11.09160426 18.09589574 9.9375 19.25 C8.38794441 19.34899523 6.83396327 19.38079524 5.28125 19.3828125 C3.87166016 19.38474609 3.87166016 19.38474609 2.43359375 19.38671875 C1.44488281 19.38285156 0.45617187 19.37898438 -0.5625 19.375 C-1.55121094 19.37886719 -2.53992188 19.38273437 -3.55859375 19.38671875 C-4.49832031 19.38542969 -5.43804688 19.38414062 -6.40625 19.3828125 C-7.27443359 19.38168457 -8.14261719 19.38055664 -9.03710938 19.37939453 C-11.0625 19.25 -11.0625 19.25 -12.0625 18.25 C-12.13569621 15.55345146 -12.15492537 12.88308542 -12.125 10.1875 C-12.12048828 9.42888672 -12.11597656 8.67027344 -12.11132812 7.88867188 C-12.0995068 6.00908129 -12.08157078 4.12953101 -12.0625 2.25 C-8.26393621 -0.24931612 -4.38269162 -0.0473378 0 0 Z"/>
  <path transform="translate(452.047119140625,482.757080078125)" fill="#000000" d="M0 0 C1.23157837 0.00616333 1.23157837 0.00616333 2.48803711 0.01245117 C3.37942383 0.01438477 4.27081055 0.01631836 5.18920898 0.01831055 C6.1218457 0.03055664 7.05448242 0.04280273 8.01538086 0.05541992 C9.42013672 0.05638672 9.42013672 0.05638672 10.85327148 0.05737305 C17.81268862 0.10272768 17.81268862 0.10272768 18.95288086 1.24291992 C19.02613254 4.10559559 19.04526291 6.94363892 19.01538086 9.80541992 C19.01086914 10.61172852 19.00635742 11.41803711 19.00170898 12.2487793 C18.98988604 14.24685748 18.97195 16.24489775 18.95288086 18.24291992 C15.41275561 20.01298255 11.35219967 19.4700835 7.45288086 19.49291992 C6.57245117 19.51354492 5.69202148 19.53416992 4.78491211 19.55541992 C3.9431543 19.56057617 3.10139648 19.56573242 2.23413086 19.57104492 C1.46133789 19.58039063 0.68854492 19.58973633 -0.10766602 19.59936523 C-1.06769531 19.4229248 -1.06769531 19.4229248 -2.04711914 19.24291992 C-4.50774893 15.55197524 -4.31528691 13.57247797 -4.29711914 9.18041992 C-4.30227539 7.93131836 -4.30743164 6.6822168 -4.31274414 5.39526367 C-4.01888577 1.90785629 -3.66603845 0.43502782 0 0 Z"/>
  <path transform="translate(493.9375,482.8125)" fill="#000000" d="M0 0 C1.39895508 -0.01836914 1.39895508 -0.01836914 2.82617188 -0.03710938 C4.16325195 -0.04000977 4.16325195 -0.04000977 5.52734375 -0.04296875 C6.348396 -0.04707764 7.16944824 -0.05118652 8.01538086 -0.05541992 C10.0625 0.1875 10.0625 0.1875 12.0625 2.1875 C12.26099071 4.73285141 12.34101775 7.14466759 12.3125 9.6875 C12.32023437 10.37714844 12.32796875 11.06679688 12.3359375 11.77734375 C12.31583293 16.93416707 12.31583293 16.93416707 10.0625 19.1875 C8.12304688 19.43041992 8.12304688 19.43041992 5.78125 19.41796875 C4.51861328 19.41506836 4.51861328 19.41506836 3.23046875 19.41210938 C1.90982422 19.39374023 1.90982422 19.39374023 0.5625 19.375 C-0.31792969 19.37435547 -1.19835937 19.37371094 -2.10546875 19.37304688 C-8.65669885 19.32790057 -8.65669885 19.32790057 -10.9375 18.1875 C-10.96434312 15.37493719 -10.98426188 12.56262759 -11 9.75 C-11.00837891 8.94755859 -11.01675781 8.14511719 -11.02539062 7.31835938 C-11.0340143 5.27454779 -10.9897815 3.23066098 -10.9375 1.1875 C-8.63740227 -1.11259773 -3.08959334 0.00212635 0 0 Z"/>
  <path transform="translate(521.047119140625,482.757080078125)" fill="#000000" d="M0 0 C1.23157837 0.00616333 1.23157837 0.00616333 2.48803711 0.01245117 C3.37942383 0.01438477 4.27081055 0.01631836 5.18920898 0.01831055 C6.1218457 0.03055664 7.05448242 0.04280273 8.01538086 0.05541992 C9.42013672 0.05638672 9.42013672 0.05638672 10.85327148 0.05737305 C17.81268862 0.10272768 17.81268862 0.10272768 18.95288086 1.24291992 C19.05275061 4.0862704 19.09165967 6.89989155 19.07788086 9.74291992 C19.08368164 10.93981445 19.08368164 10.93981445 19.08959961 12.16088867 C19.07948853 18.11631225 19.07948853 18.11631225 17.95288086 19.24291992 C14.64849177 19.52056433 11.33005952 19.4746698 8.01538086 19.49291992 C7.08274414 19.51354492 6.15010742 19.53416992 5.18920898 19.55541992 C4.29782227 19.56057617 3.40643555 19.56573242 2.48803711 19.57104492 C1.25645874 19.58506348 1.25645874 19.58506348 0 19.59936523 C-1.01332397 19.4229248 -1.01332397 19.4229248 -2.04711914 19.24291992 C-4.50774893 15.55197524 -4.31528691 13.57247797 -4.29711914 9.18041992 C-4.30227539 7.93131836 -4.30743164 6.6822168 -4.31274414 5.39526367 C-4.01888577 1.90785629 -3.66603845 0.43502782 0 0 Z"/>
  <path transform="translate(556.047119140625,482.757080078125)" fill="#000000" d="M0 0 C1.23157837 0.00616333 1.23157837 0.00616333 2.48803711 0.01245117 C3.37942383 0.01438477 4.27081055 0.01631836 5.18920898 0.01831055 C6.1218457 0.03055664 7.05448242 0.04280273 8.01538086 0.05541992 C9.42013672 0.05638672 9.42013672 0.05638672 10.85327148 0.05737305 C17.81268862 0.10272768 17.81268862 0.10272768 18.95288086 1.24291992 C19.02613254 4.10559559 19.04526291 6.94363892 19.01538086 9.80541992 C19.01086914 10.61172852 19.00635742 11.41803711 19.00170898 12.2487793 C18.98988604 14.24685748 18.97195 16.24489775 18.95288086 18.24291992 C16.6294453 19.4046377 15.2565477 19.37195961 12.67163086 19.37573242 C11.40899414 19.37766602 11.40899414 19.37766602 10.12084961 19.37963867 C8.80020508 19.37383789 8.80020508 19.37383789 7.45288086 19.36791992 C6.57245117 19.37178711 5.69202148 19.3756543 4.78491211 19.37963867 C3.9431543 19.37834961 3.10139648 19.37706055 2.23413086 19.37573242 C1.46133789 19.37460449 0.68854492 19.37347656 -0.10766602 19.37231445 C-2.04711914 19.24291992 -2.04711914 19.24291992 -4.04711914 18.24291992 C-4.1009402 15.61764803 -4.14070227 12.99347279 -4.17211914 10.36791992 C-4.18887695 9.62155273 -4.20563477 8.87518555 -4.22290039 8.10620117 C-4.24051504 6.15097531 -4.15032103 4.19549971 -4.04711914 2.24291992 C-2.04711914 0.24291992 -2.04711914 0.24291992 0 0 Z"/>
</svg>